<svg xmlns="http://www.w3.org/2000/svg" viewBox="0 0 750 500"><g id="freepik--background-complete--inject-3"><g><g><g><g><path d="M673.734,339.783h-180.746c-3.232,0-5.862-2.63-5.862-5.862V70.647c0-3.232,2.63-5.862,5.862-5.862h180.746c3.232,0,5.862,2.629,5.862,5.862V333.921c0,3.233-2.63,5.862-5.862,5.862ZM492.988,65.035c-3.095,0-5.612,2.518-5.612,5.612V333.921c0,3.095,2.518,5.612,5.612,5.612h180.746c3.095,0,5.612-2.518,5.612-5.612V70.647c0-3.094-2.518-5.612-5.612-5.612h-180.746Z" style="fill:#e0e0e0;"></path><path d="M465.306,339.783h-180.747c-3.232,0-5.862-2.63-5.862-5.862V70.647c0-3.232,2.629-5.862,5.862-5.862h180.747c3.232,0,5.862,2.629,5.862,5.862V333.921c0,3.233-2.63,5.862-5.862,5.862ZM284.559,65.035c-3.094,0-5.612,2.518-5.612,5.612V333.921c0,3.095,2.518,5.612,5.612,5.612h180.747c3.095,0,5.612-2.518,5.612-5.612V70.647c0-3.094-2.518-5.612-5.612-5.612h-180.747Z" style="fill:#e0e0e0;"></path></g><path d="M257.012,339.783H76.266c-3.232,0-5.862-2.63-5.862-5.862V70.647c0-3.232,2.629-5.862,5.862-5.862h180.746c3.232,0,5.862,2.629,5.862,5.862V333.921c0,3.233-2.63,5.862-5.862,5.862ZM76.266,65.035c-3.094,0-5.612,2.518-5.612,5.612V333.921c0,3.095,2.518,5.612,5.612,5.612h180.746c3.095,0,5.612-2.518,5.612-5.612V70.647c0-3.094-2.517-5.612-5.612-5.612H76.266Z" style="fill:#e0e0e0;"></path></g><rect y="400.852" width="750" height=".12" style="fill:#e0e0e0;"></rect></g><g><rect x="653.626" y="430.228" width="55.729" height=".421" style="fill:#ebebeb;"></rect><rect x="495.044" y="434.794" width="14.627" height=".421" style="fill:#ebebeb;"></rect><rect x="40.645" y="417.431" width="72.675" height=".421" style="fill:#ebebeb;"></rect><rect x="128.299" y="417.431" width="10.655" height=".421" style="fill:#ebebeb;"></rect><rect x="173.586" y="424.535" width="157.613" height=".421" style="fill:#ebebeb;"></rect></g></g><path d="M472.426,183.492c-2.519-1.903-6.195-2.119-8.92-.523-3.617-7.308-13.695-10.534-20.883-6.683-1.875-7.875-9.634-13.928-17.729-13.831-8.095,.097-15.706,6.336-17.391,14.254-.268,1.258-.445,2.637-1.345,3.556-1.462,1.493-3.903,.992-5.987,.83-6.556-.511-13.152,4.091-14.935,10.42l90.28-.329c.791-3.057-.57-5.79-3.089-7.694Z" style="fill:#e0e0e0;"></path><path d="M253.83,61.897c-2.519-1.903-6.195-2.119-8.92-.523-3.617-7.308-13.695-10.534-20.883-6.683-1.875-7.875-9.634-13.928-17.729-13.831-8.095,.097-15.706,6.336-17.391,14.254-.268,1.258-.445,2.637-1.345,3.556-1.462,1.493-3.903,.992-5.987,.83-6.556-.511-13.152,4.091-14.935,10.42l90.28-.329c.791-3.057-.57-5.79-3.089-7.694Z" style="fill:#e0e0e0;"></path><path d="M356.803,157.001c-1.698-1.283-4.177-1.429-6.014-.353-2.438-4.927-9.233-7.102-14.079-4.506-1.264-5.309-6.495-9.39-11.953-9.325-5.457,.066-10.589,4.271-11.725,9.61-.18,.848-.3,1.778-.907,2.398-.986,1.007-2.631,.669-4.036,.559-4.42-.345-8.867,2.758-10.069,7.025l60.864-.222c.533-2.061-.384-3.904-2.083-5.187Z" style="fill:#f0f0f0;"></path><path d="M108.552,107.505c-1.699-1.283-4.177-1.429-6.014-.353-2.438-4.927-9.233-7.102-14.079-4.506-1.264-5.309-6.495-9.39-11.953-9.325-5.457,.066-10.589,4.271-11.725,9.609-.18,.849-.3,1.778-.907,2.398-.986,1.007-2.631,.669-4.036,.559-4.42-.345-8.867,2.758-10.069,7.025l60.864-.221c.533-2.061-.385-3.904-2.083-5.187Z" style="fill:#f0f0f0;"></path><path d="M105.639,266.802c-1.699-1.283-4.177-1.429-6.014-.353-2.438-4.927-9.233-7.102-14.079-4.506-1.264-5.309-6.495-9.39-11.953-9.325-5.457,.066-10.589,4.271-11.725,9.61-.181,.848-.3,1.778-.907,2.397-.986,1.007-2.631,.669-4.036,.559-4.42-.345-8.867,2.758-10.069,7.025l60.864-.221c.533-2.061-.384-3.904-2.083-5.187Z" style="fill:#f0f0f0;"></path><path d="M307.221,224.951c-1.698-1.283-4.177-1.429-6.014-.353-2.438-4.927-9.233-7.102-14.079-4.506-1.264-5.309-6.495-9.39-11.953-9.325-5.457,.066-10.589,4.271-11.725,9.61-.181,.848-.3,1.778-.907,2.398-.986,1.007-2.631,.669-4.036,.559-4.42-.345-8.867,2.758-10.069,7.025l60.864-.222c.533-2.061-.384-3.904-2.083-5.187Z" style="fill:#f0f0f0;"></path><path d="M509.83,61.311c-2.293-1.732-5.638-1.928-8.117-.476-3.291-6.65-12.462-9.586-19.003-6.082-1.706-7.166-8.767-12.675-16.133-12.586-7.366,.089-14.292,5.765-15.826,12.971-.244,1.145-.405,2.4-1.224,3.236-1.33,1.359-3.552,.903-5.448,.755-5.966-.465-11.968,3.723-13.591,9.482l82.153-.299c.72-2.782-.519-5.269-2.811-7.001Z" style="fill:#f0f0f0;"></path><path d="M702.089,142.674c-2.293-1.732-5.638-1.928-8.117-.476-3.291-6.65-12.462-9.586-19.003-6.082-1.706-7.166-8.767-12.675-16.133-12.586-7.366,.089-14.293,5.765-15.826,12.971-.244,1.145-.405,2.4-1.224,3.236-1.33,1.359-3.552,.903-5.448,.755-5.966-.465-11.968,3.723-13.591,9.482l82.153-.299c.72-2.782-.519-5.269-2.811-7.001Z" style="fill:#f0f0f0;"></path><path d="M717.694,243.984c-2.293-1.732-5.638-1.928-8.117-.476-3.291-6.65-12.462-9.586-19.003-6.082-1.706-7.166-8.767-12.675-16.133-12.586-7.366,.089-14.293,5.765-15.826,12.971-.244,1.145-.405,2.4-1.224,3.236-1.33,1.359-3.552,.903-5.448,.755-5.966-.465-11.968,3.723-13.591,9.482l82.153-.299c.72-2.782-.519-5.269-2.811-7.001Z" style="fill:#f0f0f0;"></path></g><g id="freepik--Shadow--inject-3"><path d="M632.855,448.394c0,3.387-115.445,6.132-257.855,6.132s-257.855-2.745-257.855-6.132,115.445-6.132,257.855-6.132,257.855,2.746,257.855,6.132Z" style="fill:#f5f5f5;"></path></g><g id="freepik--Trees--inject-3"><g id="freepik--freepik--tree-1--inject-2--inject-3"><path d="M255.42,195.199c-1.889-1.14-4.077-1.689-6.281-1.574-1.353-1.643-.262-4.114,1.049-5.784,1.311-1.67,2.913-3.575,2.416-5.646-.773-3.106-5.135-3.23-8.283-2.623-1.16-1.877-1.132-4.21-1.698-6.378-.566-2.167-2.416-4.445-4.473-4.141-2.057,.304-3.327,2.581-5.356,3.065-2.361,.552-4.404-1.532-6.254-3.092-.227-.195-.467-.375-.718-.538,.386-6.474,6.543-5.439,11.789-6.322,4.1-.677-6.764-11.044,1.518-14.385,1.605-.441,3.012-1.414,3.99-2.761,.858-2.096,.098-4.506-1.808-5.729-1.885-1.138-4.068-1.686-6.267-1.574-1.353-1.643-.262-4.114,1.049-5.784,1.311-1.67,2.899-3.575,2.416-5.646-.787-3.106-5.135-3.23-8.283-2.623-1.16-1.877-1.132-4.21-1.698-6.378-.566-2.167-2.402-4.445-4.473-4.141-2.071,.304-3.327,2.581-5.356,3.064-2.361,.552-4.404-1.532-6.254-3.092-1.85-1.56-5.08-2.54-6.35-.483-.759,1.215-.304,2.927-1.105,4.141-1.367,2.071-4.638,.801-6.654-.69s-5.273-2.844-6.654-.773c-.36,.678-.624,1.403-.787,2.154-.196,.534-.471,1.037-.814,1.491-.4-1.436-.525-2.996-.897-4.445-.566-2.153-2.402-4.445-4.473-4.141s-3.327,2.595-5.356,3.065c-2.361,.566-4.404-1.532-6.253-3.092-1.85-1.56-5.08-2.54-6.35-.469-.759,1.215-.304,2.927-1.104,4.141-.166,.274-.392,.505-.663,.676-.704-.138-1.394-.138-2.084-.138-1.353-1.629-.262-4.086,1.049-5.77,1.311-1.684,2.913-3.589,2.416-5.646-.773-3.12-5.135-3.23-8.283-2.623-1.16-1.891-1.132-4.224-1.698-6.378-.566-2.154-2.402-4.459-4.473-4.141-2.071,.318-3.327,2.595-5.356,3.078-2.361,.552-4.404-1.518-6.253-3.092-1.85-1.574-5.08-2.54-6.35-.483-.759,1.201-.304,2.927-1.104,4.141-1.367,2.057-4.611,.787-6.64-.704-2.029-1.491-5.287-2.844-6.668-.773-.362,.682-.627,1.412-.787,2.167-.953,2.761-3.948,4.141-6.267,5.908s-4.155,5.287-2.195,7.441c.966,1.077,2.678,1.477,3.161,2.858,.594,1.629-1.132,3.217-2.512,4.39-1.809,2.008-2.342,4.86-1.38,7.385-.688,.626-1.502,1.097-2.388,1.38-2.36,.552-4.404-1.532-6.253-3.092-1.85-1.56-5.08-2.54-6.35-.483-.759,1.201-.304,2.927-1.104,4.141-1.367,2.071-4.611,.801-6.64-.69-2.029-1.491-5.287-2.844-6.668-.773-.36,.678-.624,1.403-.787,2.154-.952,2.761-3.948,4.141-6.267,5.908-2.319,1.767-4.155,5.287-2.195,7.454,.925,1.077,2.526,1.519,3.078,2.761-1.629-.649-3.506-.483-4.266,.732s-.304,2.927-1.104,4.141c-1.367,2.071-4.611,.801-6.64-.69-2.029-1.491-5.287-2.844-6.668-.773-.362,.682-.627,1.412-.787,2.167-.953,2.761-3.948,4.114-6.267,5.895-2.319,1.781-4.155,5.301-2.195,7.454,.966,1.063,2.678,1.477,3.161,2.858,.608,1.629-1.118,3.216-2.499,4.39-2.292,1.933-2.706,7.744,.318,9.346,1.27,.663,3.161,1.008,3.438,2.264,.276,1.256-.994,2.223-1.836,3.189-.195,.25-.37,.516-.523,.794-1.596,2.899-.54,6.542,2.359,8.138,.731,.331,1.615,.621,1.891,1.381,.104,.567,.042,1.152-.18,1.684-.29,1.055-.388,2.154-.29,3.244,0,.375,.143,.736,.4,1.008,.277,.198,.613,.296,.952,.276,4.362,.193,6.461-1.353,9.125,2.444,.233,.382,.543,.712,.911,.966,.373,.186,.784,.285,1.201,.29,2.572,.213,4.363-1.125,6.564-1.737-.184,.918-.04,1.825,.622,2.557,.804,.891,2.22,1.256,2.63,2.381,.497,1.461-.95,2.688-2.089,3.652-1.899,1.622-2.25,6.471,.263,7.786,1.066,.555,2.615,.731,2.922,1.899,.307,1.169-.818,1.855-1.461,2.659-1.691,2.18-1.294,5.319,.886,7.01,.204,.159,.421,.301,.647,.426,.599,.292,1.344,.526,1.563,1.169,.108,.49,.057,1.002-.146,1.461-.244,.874-.323,1.785-.234,2.688-.006,.313,.109,.617,.321,.847,.234,.166,.517,.249,.803,.234,3.623,.161,5.376-1.125,7.596,2.031,.194,.318,.453,.592,.76,.803,.313,.156,.658,.241,1.008,.248,2.498,.205,4.12-1.344,6.413-1.636,3.155-.409,3.827,1.227,6.617,2.542,4.382,2.06,6.53,.789,7.304-2.206,.079-.31,.135-.624,.191-.939,.332,1.224,1.043,2.356,2.123,3.194,.247,.192,.509,.364,.783,.516,.725,.354,1.627,.636,1.892,1.414,.131,.593,.069,1.212-.177,1.768-.295,1.057-.391,2.16-.283,3.253-.008,.379,.131,.747,.389,1.025,.283,.201,.626,.301,.972,.283,4.385,.194,6.506-1.361,9.194,2.458,.235,.385,.548,.716,.919,.972,.379,.189,.796,.291,1.22,.301,3.023,.248,4.986-1.627,7.761-1.98,3.819-.495,4.632,1.485,8.009,3.076,5.304,2.493,7.903,.955,8.84-2.67,.263-1.025,.422-2.073,.477-3.129,.389-6.524,6.612-5.498,11.898-6.382,.253-.042,.449-.122,.597-.233,.007,.019,.019,.034,.025,.053,.131,.593,.069,1.213-.177,1.768-.296,1.057-.391,2.16-.283,3.253-.008,.379,.132,.747,.389,1.025,.283,.201,.626,.301,.972,.283,4.385,.194,6.506-1.361,9.193,2.457,.235,.385,.548,.716,.919,.972,.38,.189,.796,.291,1.22,.301,3.023,.247,4.986-1.627,7.762-1.98,3.819-.495,4.632,1.485,8.009,3.076,5.304,2.493,7.903,.955,8.84-2.67,.263-1.025,.423-2.073,.477-3.129,.389-6.524,6.612-5.498,11.899-6.382,3.71-.618-4.697-9.066-.471-13.24,.56,.393,1.117,.958,1.702,1.791,.233,.382,.543,.711,.911,.966,.373,.186,.784,.285,1.201,.29,2.995,.248,4.928-1.615,7.689-1.974,3.824-.483,4.611,1.477,7.965,3.051,5.26,2.485,7.813,.953,8.807-2.637,.261-1.017,.419-2.057,.469-3.106,.386-6.474,6.557-5.439,11.803-6.323,4.1-.676-6.778-11.044,1.505-14.384,1.605-.441,3.012-1.414,3.989-2.761,.764-2.005,.07-4.273-1.684-5.508Zm-143.968,.538c.107,.396,.09,.782-.011,1.156-.216-.384-.383-.787-.511-1.205,.174,.015,.347,.042,.523,.049Z" style="fill:#407BFF;"></path><path d="M255.42,195.199c-1.889-1.14-4.077-1.689-6.281-1.574-1.353-1.643-.262-4.114,1.049-5.784,1.311-1.67,2.913-3.575,2.416-5.646-.773-3.106-5.135-3.23-8.283-2.623-1.16-1.877-1.132-4.21-1.698-6.378-.566-2.167-2.416-4.445-4.473-4.141-2.057,.304-3.327,2.581-5.356,3.065-2.361,.552-4.404-1.532-6.254-3.092-.227-.195-.467-.375-.718-.538,.386-6.474,6.543-5.439,11.789-6.322,4.1-.677-6.764-11.044,1.518-14.385,1.605-.441,3.012-1.414,3.99-2.761,.858-2.096,.098-4.506-1.808-5.729-1.885-1.138-4.068-1.686-6.267-1.574-1.353-1.643-.262-4.114,1.049-5.784,1.311-1.67,2.899-3.575,2.416-5.646-.787-3.106-5.135-3.23-8.283-2.623-1.16-1.877-1.132-4.21-1.698-6.378-.566-2.167-2.402-4.445-4.473-4.141-2.071,.304-3.327,2.581-5.356,3.064-2.361,.552-4.404-1.532-6.254-3.092-1.85-1.56-5.08-2.54-6.35-.483-.759,1.215-.304,2.927-1.105,4.141-1.367,2.071-4.638,.801-6.654-.69s-5.273-2.844-6.654-.773c-.36,.678-.624,1.403-.787,2.154-.196,.534-.471,1.037-.814,1.491-.4-1.436-.525-2.996-.897-4.445-.566-2.153-2.402-4.445-4.473-4.141s-3.327,2.595-5.356,3.065c-2.361,.566-4.404-1.532-6.253-3.092-1.85-1.56-5.08-2.54-6.35-.469-.759,1.215-.304,2.927-1.104,4.141-.166,.274-.392,.505-.663,.676-.704-.138-1.394-.138-2.084-.138-1.353-1.629-.262-4.086,1.049-5.77,1.311-1.684,2.913-3.589,2.416-5.646-.773-3.12-5.135-3.23-8.283-2.623-1.16-1.891-1.132-4.224-1.698-6.378-.566-2.154-2.402-4.459-4.473-4.141-2.071,.318-3.327,2.595-5.356,3.078-2.361,.552-4.404-1.518-6.253-3.092-1.85-1.574-5.08-2.54-6.35-.483-.759,1.201-.304,2.927-1.104,4.141-1.367,2.057-4.611,.787-6.64-.704-2.029-1.491-5.287-2.844-6.668-.773-.362,.682-.627,1.412-.787,2.167-.953,2.761-3.948,4.141-6.267,5.908s-4.155,5.287-2.195,7.441c.966,1.077,2.678,1.477,3.161,2.858,.594,1.629-1.132,3.217-2.512,4.39-1.809,2.008-2.342,4.86-1.38,7.385-.688,.626-1.502,1.097-2.388,1.38-2.36,.552-4.404-1.532-6.253-3.092-1.85-1.56-5.08-2.54-6.35-.483-.759,1.201-.304,2.927-1.104,4.141-1.367,2.071-4.611,.801-6.64-.69-2.029-1.491-5.287-2.844-6.668-.773-.36,.678-.624,1.403-.787,2.154-.952,2.761-3.948,4.141-6.267,5.908-2.319,1.767-4.155,5.287-2.195,7.454,.925,1.077,2.526,1.519,3.078,2.761-1.629-.649-3.506-.483-4.266,.732s-.304,2.927-1.104,4.141c-1.367,2.071-4.611,.801-6.64-.69-2.029-1.491-5.287-2.844-6.668-.773-.362,.682-.627,1.412-.787,2.167-.953,2.761-3.948,4.114-6.267,5.895-2.319,1.781-4.155,5.301-2.195,7.454,.966,1.063,2.678,1.477,3.161,2.858,.608,1.629-1.118,3.216-2.499,4.39-2.292,1.933-2.706,7.744,.318,9.346,1.27,.663,3.161,1.008,3.438,2.264,.276,1.256-.994,2.223-1.836,3.189-.195,.25-.37,.516-.523,.794-1.596,2.899-.54,6.542,2.359,8.138,.731,.331,1.615,.621,1.891,1.381,.104,.567,.042,1.152-.18,1.684-.29,1.055-.388,2.154-.29,3.244,0,.375,.143,.736,.4,1.008,.277,.198,.613,.296,.952,.276,4.362,.193,6.461-1.353,9.125,2.444,.233,.382,.543,.712,.911,.966,.373,.186,.784,.285,1.201,.29,2.572,.213,4.363-1.125,6.564-1.737-.184,.918-.04,1.825,.622,2.557,.804,.891,2.22,1.256,2.63,2.381,.497,1.461-.95,2.688-2.089,3.652-1.899,1.622-2.25,6.471,.263,7.786,1.066,.555,2.615,.731,2.922,1.899,.307,1.169-.818,1.855-1.461,2.659-1.691,2.18-1.294,5.319,.886,7.01,.204,.159,.421,.301,.647,.426,.599,.292,1.344,.526,1.563,1.169,.108,.49,.057,1.002-.146,1.461-.244,.874-.323,1.785-.234,2.688-.006,.313,.109,.617,.321,.847,.234,.166,.517,.249,.803,.234,3.623,.161,5.376-1.125,7.596,2.031,.194,.318,.453,.592,.76,.803,.313,.156,.658,.241,1.008,.248,2.498,.205,4.12-1.344,6.413-1.636,3.155-.409,3.827,1.227,6.617,2.542,4.382,2.06,6.53,.789,7.304-2.206,.079-.31,.135-.624,.191-.939,.332,1.224,1.043,2.356,2.123,3.194,.247,.192,.509,.364,.783,.516,.725,.354,1.627,.636,1.892,1.414,.131,.593,.069,1.212-.177,1.768-.295,1.057-.391,2.16-.283,3.253-.008,.379,.131,.747,.389,1.025,.283,.201,.626,.301,.972,.283,4.385,.194,6.506-1.361,9.194,2.458,.235,.385,.548,.716,.919,.972,.379,.189,.796,.291,1.22,.301,3.023,.248,4.986-1.627,7.761-1.98,3.819-.495,4.632,1.485,8.009,3.076,5.304,2.493,7.903,.955,8.84-2.67,.263-1.025,.422-2.073,.477-3.129,.389-6.524,6.612-5.498,11.898-6.382,.253-.042,.449-.122,.597-.233,.007,.019,.019,.034,.025,.053,.131,.593,.069,1.213-.177,1.768-.296,1.057-.391,2.16-.283,3.253-.008,.379,.132,.747,.389,1.025,.283,.201,.626,.301,.972,.283,4.385,.194,6.506-1.361,9.193,2.457,.235,.385,.548,.716,.919,.972,.38,.189,.796,.291,1.22,.301,3.023,.247,4.986-1.627,7.762-1.98,3.819-.495,4.632,1.485,8.009,3.076,5.304,2.493,7.903,.955,8.84-2.67,.263-1.025,.423-2.073,.477-3.129,.389-6.524,6.612-5.498,11.899-6.382,3.71-.618-4.697-9.066-.471-13.24,.56,.393,1.117,.958,1.702,1.791,.233,.382,.543,.711,.911,.966,.373,.186,.784,.285,1.201,.29,2.995,.248,4.928-1.615,7.689-1.974,3.824-.483,4.611,1.477,7.965,3.051,5.26,2.485,7.813,.953,8.807-2.637,.261-1.017,.419-2.057,.469-3.106,.386-6.474,6.557-5.439,11.803-6.323,4.1-.676-6.778-11.044,1.505-14.384,1.605-.441,3.012-1.414,3.989-2.761,.764-2.005,.07-4.273-1.684-5.508Zm-143.968,.538c.107,.396,.09,.782-.011,1.156-.216-.384-.383-.787-.511-1.205,.174,.015,.347,.042,.523,.049Z" style="fill:#fff; opacity:.5;"></path><path d="M186.155,191.354l-16.412,12.643,5.629-17.853,10.96-14.096-1.873-1.562-10.34,11.27-1.838-17.853h-2.993s2.459,21.21-1.079,28.976c0,0-12.85,32.692-20.673,39.769-.443,.41-.829,.878-1.149,1.39-2.346-6.018-5.396-11.737-9.087-17.037,3.09-7.904,9.719-25.274,11.971-34.568,1.765-7.219,3.089-14.539,3.963-21.919l-2.563-.282s-7.271,34.333-19.288,49.957c-3.56-3.271-7.596-5.983-11.971-8.042-.977-4.825-1.39-13.223,1.804-26.331l-2.54-.649s-4.847,11.092-4.422,24.407c-1.808-.908-3.551-1.941-5.216-3.09-11.58-8.145-19.725-22.861-19.725-22.861l-2.37,2.307s9.884,21.704,23.658,28.953c13.774,7.249,22.701,24.918,23.413,29.548,.195,1.321,1.787,11.811-.419,30.19-4.593-1.959-9.849-2.689-15.991-5.984l-1.584,7.968,15.553,11.129c.735,44.804-6.428,113.155-6.301,123.241h27.364c-.674-13.913-2.662-87.966-.103-142.648,.218-1.344,.448-2.884,.666-4.676,2.137-16.773,14.865-39.689,20.92-46.206,6.488-6.983,13.699-12.519,13.699-12.519l-1.664-3.571Z" style="fill:#263238;"></path></g><g id="freepik--freepik--tree-1--inject-2-2--inject-3"><path d="M692.239,162.263c-1.889-1.14-4.077-1.689-6.281-1.574-1.353-1.643-.262-4.114,1.049-5.784,1.311-1.67,2.913-3.575,2.416-5.646-.773-3.106-5.135-3.23-8.283-2.623-1.16-1.877-1.132-4.21-1.698-6.378-.566-2.167-2.416-4.445-4.473-4.141-2.057,.304-3.327,2.581-5.356,3.065-2.361,.552-4.404-1.532-6.254-3.092-.227-.195-.467-.375-.718-.538,.386-6.474,6.543-5.439,11.789-6.322,4.1-.676-6.764-11.044,1.518-14.385,1.605-.441,3.012-1.414,3.99-2.761,.858-2.096,.098-4.506-1.808-5.729-1.885-1.138-4.068-1.686-6.267-1.574-1.353-1.643-.262-4.114,1.049-5.784,1.311-1.67,2.899-3.575,2.416-5.646-.787-3.106-5.135-3.23-8.283-2.623-1.16-1.877-1.132-4.21-1.698-6.378-.566-2.167-2.402-4.445-4.473-4.141-2.071,.304-3.327,2.581-5.356,3.065-2.361,.552-4.404-1.532-6.253-3.092-1.85-1.56-5.08-2.54-6.35-.483-.759,1.215-.304,2.927-1.104,4.141-1.367,2.071-4.638,.801-6.654-.69s-5.273-2.844-6.654-.773c-.36,.678-.624,1.403-.787,2.154-.196,.534-.471,1.037-.814,1.491-.4-1.436-.525-2.996-.897-4.445-.566-2.154-2.402-4.445-4.473-4.141s-3.327,2.595-5.356,3.065c-2.361,.566-4.404-1.532-6.253-3.092-1.85-1.56-5.08-2.54-6.35-.469-.759,1.215-.304,2.927-1.104,4.141-.166,.274-.392,.505-.663,.676-.704-.138-1.394-.138-2.084-.138-1.353-1.629-.262-4.086,1.049-5.77,1.311-1.684,2.913-3.589,2.416-5.646-.773-3.12-5.135-3.23-8.283-2.623-1.16-1.891-1.132-4.224-1.698-6.378-.566-2.154-2.402-4.459-4.473-4.141-2.071,.318-3.327,2.595-5.356,3.078-2.361,.552-4.404-1.518-6.253-3.092-1.85-1.574-5.08-2.54-6.35-.483-.759,1.201-.304,2.927-1.104,4.141-1.367,2.057-4.611,.787-6.64-.704-2.029-1.491-5.287-2.844-6.668-.773-.362,.682-.627,1.412-.787,2.167-.952,2.761-3.948,4.141-6.267,5.908-2.319,1.767-4.155,5.287-2.195,7.441,.966,1.077,2.678,1.477,3.161,2.858,.594,1.629-1.132,3.216-2.512,4.39-1.809,2.008-2.342,4.86-1.38,7.385-.688,.626-1.502,1.097-2.388,1.38-2.361,.552-4.404-1.532-6.253-3.092-1.85-1.56-5.08-2.54-6.35-.483-.759,1.201-.304,2.927-1.104,4.141-1.367,2.071-4.611,.801-6.64-.69-2.029-1.491-5.287-2.844-6.668-.773-.36,.678-.624,1.403-.787,2.153-.952,2.761-3.948,4.141-6.267,5.908-2.319,1.767-4.155,5.287-2.195,7.454,.925,1.077,2.526,1.519,3.078,2.761-1.629-.649-3.506-.483-4.266,.732s-.304,2.927-1.104,4.141c-1.367,2.071-4.611,.801-6.64-.69-2.029-1.491-5.287-2.844-6.668-.773-.362,.682-.627,1.412-.787,2.167-.952,2.761-3.948,4.114-6.267,5.895-2.319,1.781-4.155,5.301-2.195,7.454,.966,1.063,2.678,1.477,3.161,2.858,.607,1.629-1.118,3.216-2.499,4.39-2.292,1.933-2.706,7.745,.317,9.346,1.27,.663,3.161,1.008,3.437,2.264,.276,1.256-.994,2.223-1.836,3.189-.195,.25-.37,.516-.523,.794-1.596,2.899-.54,6.542,2.359,8.138,.732,.331,1.615,.621,1.891,1.38,.104,.567,.042,1.152-.179,1.684-.29,1.055-.388,2.154-.29,3.244,0,.375,.143,.735,.4,1.008,.277,.198,.613,.296,.952,.276,4.362,.193,6.461-1.353,9.125,2.444,.233,.382,.543,.711,.911,.966,.373,.186,.784,.285,1.201,.29,2.572,.213,4.363-1.125,6.564-1.737-.183,.918-.04,1.825,.622,2.557,.804,.891,2.22,1.256,2.63,2.381,.497,1.461-.95,2.688-2.089,3.652-1.899,1.622-2.25,6.471,.263,7.786,1.066,.555,2.615,.73,2.922,1.899s-.818,1.855-1.461,2.659c-1.691,2.18-1.294,5.319,.886,7.01,.204,.158,.421,.301,.647,.426,.599,.292,1.344,.526,1.563,1.169,.108,.49,.057,1.002-.146,1.461-.244,.874-.323,1.785-.234,2.688-.006,.313,.109,.617,.321,.847,.234,.166,.517,.249,.804,.234,3.623,.161,5.376-1.125,7.596,2.031,.194,.318,.453,.592,.76,.803,.313,.156,.658,.241,1.008,.248,2.498,.205,4.12-1.344,6.413-1.636,3.155-.409,3.827,1.227,6.617,2.542,4.382,2.06,6.53,.789,7.304-2.206,.079-.31,.135-.624,.192-.939,.332,1.224,1.043,2.356,2.123,3.193,.247,.192,.509,.364,.783,.516,.725,.354,1.627,.636,1.892,1.414,.131,.593,.069,1.213-.177,1.768-.295,1.057-.391,2.16-.283,3.253-.008,.379,.131,.747,.389,1.025,.283,.201,.626,.301,.972,.283,4.384,.194,6.506-1.361,9.193,2.457,.235,.385,.548,.716,.919,.972,.379,.189,.796,.291,1.22,.301,3.023,.248,4.986-1.627,7.761-1.98,3.819-.495,4.632,1.485,8.009,3.076,5.304,2.493,7.903,.955,8.84-2.67,.263-1.025,.422-2.073,.477-3.129,.389-6.524,6.612-5.498,11.898-6.382,.253-.042,.449-.122,.597-.234,.007,.019,.019,.034,.025,.053,.131,.593,.069,1.213-.177,1.768-.295,1.057-.391,2.16-.283,3.253-.008,.379,.132,.747,.389,1.025,.283,.201,.626,.301,.972,.283,4.385,.194,6.506-1.361,9.193,2.458,.235,.385,.548,.716,.919,.972,.379,.189,.796,.291,1.22,.301,3.023,.248,4.986-1.627,7.761-1.98,3.819-.495,4.632,1.485,8.009,3.076,5.304,2.493,7.903,.955,8.84-2.67,.263-1.025,.423-2.073,.477-3.129,.389-6.524,6.612-5.498,11.899-6.382,3.71-.618-4.697-9.066-.471-13.24,.56,.393,1.117,.958,1.702,1.791,.233,.382,.543,.712,.911,.966,.373,.186,.784,.285,1.201,.29,2.995,.249,4.928-1.615,7.689-1.974,3.824-.483,4.611,1.477,7.965,3.051,5.26,2.485,7.813,.953,8.807-2.637,.261-1.017,.419-2.057,.469-3.106,.386-6.474,6.557-5.439,11.803-6.322,4.1-.677-6.778-11.044,1.505-14.384,1.605-.441,3.012-1.414,3.989-2.761,.764-2.005,.07-4.273-1.684-5.508Zm-143.968,.538c.107,.396,.09,.782-.011,1.157-.216-.384-.383-.787-.511-1.205,.174,.015,.347,.042,.523,.049Z" style="fill:#407BFF;"></path><path d="M692.239,162.263c-1.889-1.14-4.077-1.689-6.281-1.574-1.353-1.643-.262-4.114,1.049-5.784,1.311-1.67,2.913-3.575,2.416-5.646-.773-3.106-5.135-3.23-8.283-2.623-1.16-1.877-1.132-4.21-1.698-6.378-.566-2.167-2.416-4.445-4.473-4.141-2.057,.304-3.327,2.581-5.356,3.065-2.361,.552-4.404-1.532-6.254-3.092-.227-.195-.467-.375-.718-.538,.386-6.474,6.543-5.439,11.789-6.322,4.1-.676-6.764-11.044,1.518-14.385,1.605-.441,3.012-1.414,3.99-2.761,.858-2.096,.098-4.506-1.808-5.729-1.885-1.138-4.068-1.686-6.267-1.574-1.353-1.643-.262-4.114,1.049-5.784,1.311-1.67,2.899-3.575,2.416-5.646-.787-3.106-5.135-3.23-8.283-2.623-1.16-1.877-1.132-4.21-1.698-6.378-.566-2.167-2.402-4.445-4.473-4.141-2.071,.304-3.327,2.581-5.356,3.065-2.361,.552-4.404-1.532-6.253-3.092-1.85-1.56-5.08-2.54-6.35-.483-.759,1.215-.304,2.927-1.104,4.141-1.367,2.071-4.638,.801-6.654-.69s-5.273-2.844-6.654-.773c-.36,.678-.624,1.403-.787,2.154-.196,.534-.471,1.037-.814,1.491-.4-1.436-.525-2.996-.897-4.445-.566-2.154-2.402-4.445-4.473-4.141s-3.327,2.595-5.356,3.065c-2.361,.566-4.404-1.532-6.253-3.092-1.85-1.56-5.08-2.54-6.35-.469-.759,1.215-.304,2.927-1.104,4.141-.166,.274-.392,.505-.663,.676-.704-.138-1.394-.138-2.084-.138-1.353-1.629-.262-4.086,1.049-5.77,1.311-1.684,2.913-3.589,2.416-5.646-.773-3.12-5.135-3.23-8.283-2.623-1.16-1.891-1.132-4.224-1.698-6.378-.566-2.154-2.402-4.459-4.473-4.141-2.071,.318-3.327,2.595-5.356,3.078-2.361,.552-4.404-1.518-6.253-3.092-1.85-1.574-5.08-2.54-6.35-.483-.759,1.201-.304,2.927-1.104,4.141-1.367,2.057-4.611,.787-6.64-.704-2.029-1.491-5.287-2.844-6.668-.773-.362,.682-.627,1.412-.787,2.167-.952,2.761-3.948,4.141-6.267,5.908-2.319,1.767-4.155,5.287-2.195,7.441,.966,1.077,2.678,1.477,3.161,2.858,.594,1.629-1.132,3.216-2.512,4.39-1.809,2.008-2.342,4.86-1.38,7.385-.688,.626-1.502,1.097-2.388,1.38-2.361,.552-4.404-1.532-6.253-3.092-1.85-1.56-5.08-2.54-6.35-.483-.759,1.201-.304,2.927-1.104,4.141-1.367,2.071-4.611,.801-6.64-.69-2.029-1.491-5.287-2.844-6.668-.773-.36,.678-.624,1.403-.787,2.153-.952,2.761-3.948,4.141-6.267,5.908-2.319,1.767-4.155,5.287-2.195,7.454,.925,1.077,2.526,1.519,3.078,2.761-1.629-.649-3.506-.483-4.266,.732s-.304,2.927-1.104,4.141c-1.367,2.071-4.611,.801-6.64-.69-2.029-1.491-5.287-2.844-6.668-.773-.362,.682-.627,1.412-.787,2.167-.952,2.761-3.948,4.114-6.267,5.895-2.319,1.781-4.155,5.301-2.195,7.454,.966,1.063,2.678,1.477,3.161,2.858,.607,1.629-1.118,3.216-2.499,4.39-2.292,1.933-2.706,7.745,.317,9.346,1.27,.663,3.161,1.008,3.437,2.264,.276,1.256-.994,2.223-1.836,3.189-.195,.25-.37,.516-.523,.794-1.596,2.899-.54,6.542,2.359,8.138,.732,.331,1.615,.621,1.891,1.38,.104,.567,.042,1.152-.179,1.684-.29,1.055-.388,2.154-.29,3.244,0,.375,.143,.735,.4,1.008,.277,.198,.613,.296,.952,.276,4.362,.193,6.461-1.353,9.125,2.444,.233,.382,.543,.711,.911,.966,.373,.186,.784,.285,1.201,.29,2.572,.213,4.363-1.125,6.564-1.737-.183,.918-.04,1.825,.622,2.557,.804,.891,2.22,1.256,2.63,2.381,.497,1.461-.95,2.688-2.089,3.652-1.899,1.622-2.25,6.471,.263,7.786,1.066,.555,2.615,.73,2.922,1.899s-.818,1.855-1.461,2.659c-1.691,2.18-1.294,5.319,.886,7.01,.204,.158,.421,.301,.647,.426,.599,.292,1.344,.526,1.563,1.169,.108,.49,.057,1.002-.146,1.461-.244,.874-.323,1.785-.234,2.688-.006,.313,.109,.617,.321,.847,.234,.166,.517,.249,.804,.234,3.623,.161,5.376-1.125,7.596,2.031,.194,.318,.453,.592,.76,.803,.313,.156,.658,.241,1.008,.248,2.498,.205,4.12-1.344,6.413-1.636,3.155-.409,3.827,1.227,6.617,2.542,4.382,2.06,6.53,.789,7.304-2.206,.079-.31,.135-.624,.192-.939,.332,1.224,1.043,2.356,2.123,3.193,.247,.192,.509,.364,.783,.516,.725,.354,1.627,.636,1.892,1.414,.131,.593,.069,1.213-.177,1.768-.295,1.057-.391,2.16-.283,3.253-.008,.379,.131,.747,.389,1.025,.283,.201,.626,.301,.972,.283,4.384,.194,6.506-1.361,9.193,2.457,.235,.385,.548,.716,.919,.972,.379,.189,.796,.291,1.22,.301,3.023,.248,4.986-1.627,7.761-1.98,3.819-.495,4.632,1.485,8.009,3.076,5.304,2.493,7.903,.955,8.84-2.67,.263-1.025,.422-2.073,.477-3.129,.389-6.524,6.612-5.498,11.898-6.382,.253-.042,.449-.122,.597-.234,.007,.019,.019,.034,.025,.053,.131,.593,.069,1.213-.177,1.768-.295,1.057-.391,2.16-.283,3.253-.008,.379,.132,.747,.389,1.025,.283,.201,.626,.301,.972,.283,4.385,.194,6.506-1.361,9.193,2.458,.235,.385,.548,.716,.919,.972,.379,.189,.796,.291,1.22,.301,3.023,.248,4.986-1.627,7.761-1.98,3.819-.495,4.632,1.485,8.009,3.076,5.304,2.493,7.903,.955,8.84-2.67,.263-1.025,.423-2.073,.477-3.129,.389-6.524,6.612-5.498,11.899-6.382,3.71-.618-4.697-9.066-.471-13.24,.56,.393,1.117,.958,1.702,1.791,.233,.382,.543,.712,.911,.966,.373,.186,.784,.285,1.201,.29,2.995,.249,4.928-1.615,7.689-1.974,3.824-.483,4.611,1.477,7.965,3.051,5.26,2.485,7.813,.953,8.807-2.637,.261-1.017,.419-2.057,.469-3.106,.386-6.474,6.557-5.439,11.803-6.322,4.1-.677-6.778-11.044,1.505-14.384,1.605-.441,3.012-1.414,3.989-2.761,.764-2.005,.07-4.273-1.684-5.508Zm-143.968,.538c.107,.396,.09,.782-.011,1.157-.216-.384-.383-.787-.511-1.205,.174,.015,.347,.042,.523,.049Z" style="fill:#fff; opacity:.5;"></path><path d="M622.973,158.418l-16.412,12.643,5.629-17.853,10.96-14.096-1.873-1.562-10.339,11.27-1.838-17.853h-2.993s2.459,21.21-1.079,28.977c0,0-12.85,32.692-20.673,39.769-.443,.41-.829,.878-1.149,1.39-2.346-6.018-5.396-11.737-9.087-17.037,3.09-7.904,9.719-25.274,11.971-34.568,1.765-7.219,3.089-14.539,3.963-21.919l-2.563-.282s-7.271,34.333-19.288,49.957c-3.56-3.271-7.596-5.983-11.971-8.042-.976-4.825-1.39-13.223,1.804-26.331l-2.54-.649s-4.847,11.092-4.422,24.407c-1.808-.908-3.551-1.941-5.216-3.09-11.58-8.145-19.725-22.861-19.725-22.861l-2.37,2.307s9.884,21.704,23.658,28.953c13.774,7.249,22.701,24.918,23.413,29.548,.195,1.321,1.787,11.811-.419,30.19-4.593-1.959-9.849-2.689-15.991-5.984l-1.584,7.968,15.553,11.128c.735,44.804-6.428,147.592-6.301,157.679h27.364c-.674-13.913-2.662-122.404-.103-177.086,.218-1.344,.448-2.884,.666-4.676,2.137-16.773,14.865-39.689,20.92-46.206,6.488-6.983,13.699-12.518,13.699-12.518l-1.664-3.571Z" style="fill:#263238;"></path></g></g><g id="freepik--Sun--inject-3"><path d="M403.858,78.506c0,3.074-4.445,5.515-5.204,8.346-.759,2.831,1.819,7.266,.34,9.824s-6.575,2.51-8.686,4.611c-2.111,2.101-2.013,7.188-4.611,8.686-2.597,1.498-6.896-1.119-9.824-.34-2.928,.778-5.281,5.204-8.345,5.204s-5.515-4.445-8.345-5.204c-2.831-.759-7.256,1.829-9.824,.34-2.568-1.488-2.5-6.575-4.611-8.686-2.111-2.111-7.178-2.004-8.686-4.611-1.508-2.607,1.118-6.925,.34-9.843-.778-2.918-5.204-5.272-5.204-8.346s4.445-5.505,5.204-8.336c.759-2.831-1.819-7.266-.34-9.824,1.478-2.558,6.575-2.51,8.686-4.62,2.111-2.11,2.013-7.178,4.611-8.686,2.597-1.508,6.896,1.128,9.824,.341,2.928-.788,5.282-5.194,8.346-5.194s5.515,4.445,8.345,5.194c2.831,.749,7.256-1.819,9.824-.341,2.568,1.478,2.5,6.575,4.611,8.686,2.111,2.111,7.178,2.014,8.686,4.62,1.508,2.607-1.118,6.896-.34,9.824,.778,2.928,5.204,5.292,5.204,8.355Z" style="fill:#407BFF;"></path><path d="M403.858,78.506c0,3.074-4.445,5.515-5.204,8.346-.759,2.831,1.819,7.266,.34,9.824s-6.575,2.51-8.686,4.611c-2.111,2.101-2.013,7.188-4.611,8.686-2.597,1.498-6.896-1.119-9.824-.34-2.928,.778-5.281,5.204-8.345,5.204s-5.515-4.445-8.345-5.204c-2.831-.759-7.256,1.829-9.824,.34-2.568-1.488-2.5-6.575-4.611-8.686-2.111-2.111-7.178-2.004-8.686-4.611-1.508-2.607,1.118-6.925,.34-9.843-.778-2.918-5.204-5.272-5.204-8.346s4.445-5.505,5.204-8.336c.759-2.831-1.819-7.266-.34-9.824,1.478-2.558,6.575-2.51,8.686-4.62,2.111-2.11,2.013-7.178,4.611-8.686,2.597-1.508,6.896,1.128,9.824,.341,2.928-.788,5.282-5.194,8.346-5.194s5.515,4.445,8.345,5.194c2.831,.749,7.256-1.819,9.824-.341,2.568,1.478,2.5,6.575,4.611,8.686,2.111,2.111,7.178,2.014,8.686,4.62,1.508,2.607-1.118,6.896-.34,9.824,.778,2.928,5.204,5.292,5.204,8.355Z" style="fill:#fff; opacity:.7;"></path><path d="M357.592,54.517c13.246-5.487,28.433,.803,33.92,14.05,5.487,13.246-.803,28.433-14.05,33.92-13.246,5.487-28.433-.804-33.92-14.05-5.487-13.246,.804-28.433,14.05-33.92Z" style="fill:#407BFF;"></path></g><g id="freepik--Car--inject-3"><g><path d="M469.985,413.784s116.209-3.595,116.677-3.847c7.351-3.947,3.272-23.474,3.272-23.474l-15.584-39.402-24.994-24.112-52.046,13.526-22.888,7.531-14.59,44.514,10.153,25.262Z" style="fill:#407BFF;"></path><path d="M469.985,413.784s116.209-3.595,116.677-3.847c7.351-3.947,3.272-23.474,3.272-23.474l-15.584-39.402-24.994-24.112-52.046,13.526-22.888,7.531-14.59,44.514,10.153,25.262Z" style="opacity:.5;"></path><path d="M377.851,235.968s17.153-8.741,21.771-9.071c4.618-.33,170.702-2.639,174.495-1.649,3.793,.99,14.017,6.666,15.502,8.776l-9.405,6.233-26.714-5.88s-2.803-5.501-7.915-5.665c-5.113-.165-37.769,0-37.769,0v6.167h-18.637v-4.518l-75.702,.825s-5.278,4.123-5.937,6.927c-.66,2.804-29.687-2.144-29.687-2.144Z" style="fill:#263238;"></path><path d="M120.528,406.261s115.559,4.119,115.265,3.677c-.294-.442,7.351-29.258,7.351-29.258l-15.584-39.402-24.994-24.112-52.046,13.526-22.888,7.532-14.59,44.514,7.486,23.523Z" style="fill:#407BFF;"></path><path d="M120.528,406.261s115.559,4.119,115.265,3.677c-.294-.442,7.351-29.258,7.351-29.258l-15.584-39.402-24.994-24.112-52.046,13.526-22.888,7.532-14.59,44.514,7.486,23.523Z" style="opacity:.5;"></path><path d="M642.28,347.858l-2.531-56.533-41.767-57.376s-197.02,1.688-245.115,3.797c-48.095,2.109-111.378,57.798-111.378,57.798-53.22,3.841-102.077,10.358-138.787,24.324-11.915,5.254-13.02,8.203-15.758,18.356v62.438c3.942,5.145,23.484,9.276,23.484,9.276l12.31-.916c.568-18.438,6.713-68.374,56.922-63.9,43.123,3.843,51.346,46.628,52.414,71.818h0l243.175,.529c.569-1.073,.925-1.758,.925-1.758,0,0-4.564-76.066,56.897-70.589,43.428,3.87,51.459,47.232,52.434,72.347h4.039l53.256-16.117c6.455-1.954,10.87-7.903,10.87-14.647v-30.41l-11.391-8.438Z" style="fill:#407BFF;"></path><path d="M253.125,301.076s304.482-3.181,304.771-4.048c.289-.868,30.072-36.434,30.072-36.434l-17.928-18.795-211.126,2.211c-8.303,.118-18.978,2.115-26.969,4.37-9.342,2.637-21.586,6.895-31.398,13.081-13.301,8.386-46.554,26.602-47.422,39.614Z" style="fill:#263238;"></path><path d="M384.006,294.737l3.764-45.826c-14.249-.749-28.343-.438-37.074,1.007,0,0-19.371,1.484-38.718,12.698-10.828,6.276-45.451,23.852-42.514,34.265l114.541-2.143Z" style="fill:#407BFF;"></path><polygon points="401.767 294.587 401.767 248.849 489.721 247.029 500.026 291.886 401.767 294.587" style="fill:#407BFF;"></polygon><polygon points="508.133 291.464 499.246 247.029 567.057 246.489 580.214 261.953 556.642 290.791 508.133 291.464" style="fill:#407BFF;"></polygon><path d="M384.006,294.737l3.764-45.826c-14.249-.749-28.343-.438-37.074,1.007,0,0-19.371,1.484-38.718,12.698-10.828,6.276-45.451,23.852-42.514,34.265l114.541-2.143Z" style="fill:#fff; opacity:.5;"></path><polygon points="401.767 294.587 401.767 248.849 489.721 247.029 500.026 291.886 401.767 294.587" style="fill:#fff; opacity:.5;"></polygon><polygon points="508.133 291.464 499.246 247.029 567.057 246.489 580.214 261.953 556.642 290.791 508.133 291.464" style="fill:#fff; opacity:.5;"></polygon><path d="M574.747,359.275l-.234-.973c8.427-2.037,22.087-5.503,23.29-6.231,1.318-2.192,17.269-24.109,22.27-30.972l.809,.59c-8.687,11.918-21.774,29.98-22.228,30.892-.088,.271-.329,.994-23.906,6.694Z" style="fill:#407BFF;"></path><polygon points="613.817 296.88 620.477 321.394 641.095 321.394 639.749 291.325 627.456 274.438 613.817 296.88" style="fill:#d7504d;"></polygon><path d="M514.648,346.283h-1v-30.33c0-6.813-7.734-20.983-7.812-21.126l.877-.48c.324,.59,7.936,14.537,7.936,21.606v30.33Z" style="fill:#263238;"></path><path d="M390.478,398.961c-.039-.071-3.926-7.22-6.371-18.746-2.441-11.511-1.458-52.768-1.415-54.519l.019-.121,7.725-27.793,.963,.268-7.708,27.733c-.044,1.859-.979,43.029,1.396,54.225,2.412,11.37,6.23,18.401,6.27,18.471l-.877,.482Z" style="fill:#263238;"></path><path d="M317.344,399.376c-31.49,0-55.539-.039-56.734-.159-.399-.039-.817-.056-1.25-.073-3.523-.141-7.909-.316-11.025-11.525-3.312-11.913-4.701-34.291-4.326-49.299,.349-13.966,9.351-38.275,9.442-38.52l.938,.35c-.09,.242-9.035,24.396-9.379,38.195-.374,14.935,1.003,37.186,4.29,49.006,2.92,10.507,6.902,10.666,10.101,10.794,.453,.018,.891,.036,1.309,.078,3.446,.344,208.882,0,210.956-.003l.002,1c-5.576,.01-93.716,.156-154.324,.156Z" style="fill:#263238;"></path><polygon points="597.982 233.949 620.477 233.949 620.477 240.256 611.675 252.759 597.982 233.949" style="fill:#407BFF;"></polygon><polygon points="584.402 372.476 642.28 347.858 653.671 356.295 583.286 378.14 584.402 372.476" style="opacity:.3;"></polygon><path d="M232.073,416.929s13.478-17.316,21.13-17.936c7.652-.62,218.463,0,218.463,0l-30.436,4.403s-176.931-.193-182.67,4.77c-5.739,4.963-9.974,8.809-9.974,8.809l-16.514-.047Z" style="opacity:.3;"></path><g><ellipse cx="175.739" cy="398.72" rx="47.69" ry="47.582" style="fill:#263238;"></ellipse><g style="opacity:.3;"><path d="M175.72,372.476h.026c1.286,0,2.33,1.044,2.33,2.33v14.954c0,1.286-1.044,2.33-2.33,2.33h-.026c-1.286,0-2.329-1.044-2.329-2.329v-14.954c0-1.286,1.044-2.329,2.329-2.329Z" style="fill:#fff;"></path></g><g style="opacity:.3;"><rect x="173.391" y="405.345" width="4.685" height="19.613" rx="2.33" ry="2.33" style="fill:#fff;"></rect></g><g style="opacity:.3;"><path d="M184.656,396.271c-1.115,.629-2.53,.238-3.161-.875h0c-.648-1.113-.27-2.539,.844-3.186l12.984-7.515,.006-.003c1.118-.641,2.545-.256,3.187,.86h0l.003,.006c.642,1.116,.256,2.54-.862,3.18l-12.969,7.515-.032,.019Z" style="fill:#fff;"></path></g><g style="opacity:.3;"><path d="M152.95,411.777h0l-.003-.006c-.642-1.116-.256-2.54,.862-3.18l12.97-7.515c1.119-.649,2.554-.273,3.208,.842h0c.648,1.121,.264,2.553-.859,3.201l-12.969,7.515c-1.123,.647-2.559,.263-3.208-.857Z" style="fill:#fff;"></path></g><g style="opacity:.3;"><path d="M198.513,411.843c-.645,1.114-2.074,1.495-3.19,.851l-12.984-7.515c-1.117-.653-1.494-2.084-.843-3.201h0c.649-1.113,2.078-1.489,3.193-.842l12.969,7.515,.006,.004c1.116,.644,1.498,2.069,.853,3.183h0l-.003,.006Z" style="fill:#fff;"></path></g><g style="opacity:.3;"><path d="M169.973,395.419c-.652,1.11-2.082,1.483-3.195,.833l-12.969-7.515-.006-.003c-1.116-.644-1.498-2.069-.853-3.183h0c.649-1.12,2.085-1.503,3.208-.857l12.97,7.515,.006,.004c1.116,.644,1.498,2.069,.853,3.183h0l-.014,.024Z" style="fill:#fff;"></path></g><path d="M175.741,394.794h0c2.171,0,3.931,1.756,3.931,3.923s-1.76,3.923-3.931,3.923-3.931-1.756-3.931-3.923,1.76-3.923,3.931-3.923Z" style="fill:#263238;"></path></g><g><ellipse cx="529.378" cy="398.72" rx="47.69" ry="47.582" style="fill:#263238;"></ellipse><g style="opacity:.3;"><path d="M531.714,374.805v14.954c0,1.287-1.045,2.329-2.335,2.329h-.015c-1.289,0-2.335-1.043-2.335-2.329v-14.954c0-1.287,1.045-2.329,2.335-2.329h.015c1.289,0,2.335,1.043,2.335,2.329Z" style="fill:#fff;"></path></g><g style="opacity:.3;"><path d="M531.714,407.674v14.954c0,1.287-1.045,2.33-2.335,2.33h-.015c-1.289,0-2.335-1.043-2.335-2.33v-14.954c0-1.287,1.045-2.33,2.335-2.33h.015c1.289,0,2.335,1.043,2.335,2.33Z" style="fill:#fff;"></path></g><g style="opacity:.3;"><path d="M538.294,396.271c-1.115,.629-2.53,.238-3.161-.875h0c-.648-1.113-.27-2.539,.844-3.186l12.984-7.515,.006-.003c1.118-.641,2.545-.256,3.187,.86h0l.003,.006c.642,1.116,.256,2.54-.862,3.18l-12.969,7.515-.032,.019Z" style="fill:#fff;"></path></g><g style="opacity:.3;"><path d="M506.588,411.777h0l-.003-.006c-.642-1.116-.256-2.54,.862-3.18l12.969-7.515c1.119-.649,2.554-.273,3.209,.842h0c.648,1.121,.264,2.553-.859,3.201l-12.969,7.515c-1.123,.647-2.559,.263-3.209-.857Z" style="fill:#fff;"></path></g><g style="opacity:.3;"><path d="M552.151,411.843c-.645,1.114-2.074,1.495-3.19,.851l-12.984-7.515c-1.117-.653-1.494-2.084-.843-3.201h0c.649-1.113,2.078-1.489,3.193-.842l12.969,7.515,.006,.004c1.116,.644,1.498,2.069,.852,3.183h0l-.003,.006Z" style="fill:#fff;"></path></g><g style="opacity:.3;"><path d="M523.611,395.419c-.652,1.11-2.082,1.483-3.195,.833l-12.969-7.515-.006-.003c-1.116-.644-1.498-2.069-.853-3.183h0c.65-1.12,2.085-1.503,3.209-.857l12.969,7.515,.006,.004c1.116,.644,1.498,2.069,.853,3.183h0l-.014,.024Z" style="fill:#fff;"></path></g><path d="M529.379,394.794h0c2.171,0,3.931,1.756,3.931,3.923s-1.76,3.923-3.931,3.923-3.932-1.756-3.932-3.923,1.76-3.923,3.932-3.923Z" style="fill:#263238;"></path></g><path d="M299.148,276.578s26.723-22.436,55.643-24.665c27.402-2.112,30.56,.091,30.56,.091l-2.385,20.695-83.819,3.88Z" style="fill:#fff; opacity:.5;"></path><polygon points="403.476 250.997 404.18 270.808 492.602 267.828 488.158 249.816 403.476 250.997" style="fill:#fff; opacity:.5;"></polygon><polygon points="501.888 249.816 505.386 265.581 573.443 257.699 565.06 248.913 501.888 249.816" style="fill:#fff; opacity:.5;"></polygon><path d="M285.597,286.738c-.127-2.078-1.767-3.729-3.842-3.897-6.345-.514-18.689,.124-17.751,13.064,.956,13.193,13.538,10.983,19.521,9.162,1.84-.56,3.048-2.312,2.931-4.232l-.86-14.098Z" style="fill:#407BFF;"></path><path d="M264.004,295.906l14.398,1.043s.092,3.12-1.652,3.487c-1.743,.367-11.768,0-11.768,0,0,0-.943-2.554-.979-4.53Z" style="fill:#d7504d;"></path><path d="M275.214,306.959c-2.635,0-5.226-.525-7.327-1.99-2.605-1.817-4.08-4.854-4.382-9.026-.295-4.069,.677-7.302,2.888-9.608,3.465-3.616,9.273-4.221,13.542-4.095,3.363,.102,6.054,2.717,6.259,6.084l.731,11.996c.151,2.483-1.413,4.7-3.803,5.39-2.341,.674-5.148,1.25-7.908,1.25Zm3.694-23.735c-3.93,0-8.838,.719-11.793,3.803-2.007,2.093-2.886,5.068-2.612,8.844,.28,3.856,1.611,6.643,3.957,8.278,4.188,2.921,10.811,1.63,14.386,.6,1.937-.559,3.205-2.355,3.082-4.368l-.731-11.996c-.174-2.848-2.448-5.06-5.292-5.145-.323-.01-.656-.016-.997-.016Z" style="fill:#263238;"></path><g><ellipse cx="361.535" cy="320.435" rx="13.634" ry="6.898" style="opacity:.3;"></ellipse><rect x="347.603" y="317.818" width="27.863" height="5.235" style="fill:#407BFF;"></rect></g><g><ellipse cx="492.602" cy="320.435" rx="13.634" ry="6.898" style="opacity:.3;"></ellipse><rect x="478.671" y="317.818" width="27.863" height="5.235" style="fill:#407BFF;"></rect></g><path d="M577.065,323.45c-6.287,0-11.402-4.848-11.402-10.806s5.115-10.806,11.402-10.806,11.403,4.848,11.403,10.806-5.115,10.806-11.403,10.806Zm0-20.611c-5.736,0-10.402,4.398-10.402,9.806s4.666,9.806,10.402,9.806,10.403-4.398,10.403-9.806-4.667-9.806-10.403-9.806Z" style="fill:#263238;"></path><path d="M132.183,323.185h15.883s-34.907,27.595-43.197,28.7c-8.29,1.105-12.247-2.014-12.247-2.014l-.674-15.788s4.556-6.379,11.809-8.149c8.373-2.044,28.426-2.75,28.426-2.75Z" style="opacity:.3;"></path><path d="M132.147,326.859l1.724,6.307s-20.711,14.22-29.002,15.325c-8.29,1.105-12.287-1.912-12.287-1.912l-.635-12.495s5.46-7.976,12.921-8.252c7.461-.276,27.278,1.027,27.278,1.027Z" style="fill:#fff;"></path><path d="M251.325,298.253s-3.847,3.948-5.126,4.054c-1.278,.106-111.388,18.129-111.388,18.129,0,0,26.163-7.689,47.343-11.778,33.414-6.45,69.171-10.405,69.171-10.405Z" style="opacity:.3;"></path><path d="M103.748,360.812c-6.347,.353-5.492,11.664-5.492,11.664l-11.312,12.94v15.246c3.942,5.145,23.484,9.276,23.484,9.276l12.31-.916c.299-9.699,2.145-28.112,11.133-42.738h0s-23.776-5.823-30.123-5.471Z" style="opacity:.3;"></path><path d="M86.944,355.699s7.767-2.04,9.181,4.704c2.003,9.548,5.035,31.751,5.035,31.751,0,0-10.07-4.939-14.216-1.176v-35.279Z" style="fill:#263238;"></path><path d="M627.456,277.797s-8.834,16.295-8.104,16.79c2.263,1.53,17.579,10.948,17.748,10.368,.757-2.599,.5-8.257,.247-11.708-.135-1.841-.811-3.6-1.934-5.065l-7.958-10.385Z" style="fill:#fff; opacity:.5;"></path></g></g></svg>