<svg xmlns="http://www.w3.org/2000/svg" viewBox="0 0 750 500"><g id="freepik--background-complete--inject-6"><g><g><g><g><rect x="66.41" y="132.2" width="55.27" height="175.16" style="fill:#f5f5f5;"></rect><rect x="94.04" y="132.2" width="27.63" height="174.67" style="fill:#ebebeb;"></rect><rect x="72.72" y="115" width="19.52" height="17.2" style="fill:#f5f5f5;"></rect><rect x="87.58" y="115" width="4.65" height="17.2" style="fill:#ebebeb;"></rect><polyline points="61.8 132.2 61.8 131.19 123.29 131.19 123.29 132.2" style="fill:#e0e0e0;"></polyline><rect x="77.31" y="139.69" width="4.68" height="9.86" style="fill:#fafafa;"></rect><path d="M94.04,153.43c0,.1-6.19,.19-13.82,.19s-13.82-.08-13.82-.19,6.19-.19,13.82-.19,13.82,.08,13.82,.19Z" style="fill:#e0e0e0;"></path><g><rect x="105.19" y="139.69" width="4.68" height="9.86" style="fill:#e0e0e0;"></rect><path d="M121.91,153.43c0,.1-6.19,.19-13.82,.19s-13.82-.08-13.82-.19,6.18-.19,13.82-.19,13.82,.08,13.82,.19Z" style="fill:#e0e0e0;"></path></g><g><rect x="105.19" y="159.28" width="4.68" height="9.86" style="fill:#e0e0e0;"></rect><path d="M121.91,173.02c0,.1-6.19,.19-13.82,.19s-13.82-.08-13.82-.19,6.18-.19,13.82-.19,13.82,.08,13.82,.19Z" style="fill:#e0e0e0;"></path></g><g><rect x="105.19" y="179.45" width="4.68" height="9.86" style="fill:#e0e0e0;"></rect><path d="M121.91,193.19c0,.1-6.19,.19-13.82,.19s-13.82-.08-13.82-.19,6.18-.19,13.82-.19,13.82,.08,13.82,.19Z" style="fill:#e0e0e0;"></path></g><g><rect x="105.19" y="199.63" width="4.68" height="9.86" style="fill:#e0e0e0;"></rect><path d="M121.91,213.37c0,.1-6.19,.19-13.82,.19s-13.82-.08-13.82-.19,6.18-.19,13.82-.19,13.82,.08,13.82,.19Z" style="fill:#e0e0e0;"></path></g><g><rect x="105.19" y="219.23" width="4.68" height="9.86" style="fill:#e0e0e0;"></rect><path d="M121.91,232.96c0,.1-6.19,.19-13.82,.19s-13.82-.08-13.82-.19,6.18-.19,13.82-.19,13.82,.08,13.82,.19Z" style="fill:#e0e0e0;"></path></g><g><rect x="105.19" y="238.91" width="4.68" height="9.86" style="fill:#e0e0e0;"></rect><rect x="105.19" y="258.84" width="4.68" height="9.86" style="fill:#e0e0e0;"></rect><path d="M121.91,252.64c0,.1-6.19,.19-13.82,.19s-13.82-.08-13.82-.19,6.18-.19,13.82-.19,13.82,.08,13.82,.19Z" style="fill:#e0e0e0;"></path></g><rect x="77.31" y="159.58" width="4.68" height="9.86" style="fill:#fafafa;"></rect><path d="M94.04,173.31c0,.1-6.19,.19-13.82,.19s-13.82-.08-13.82-.19,6.19-.19,13.82-.19,13.82,.08,13.82,.19Z" style="fill:#e0e0e0;"></path><rect x="77.31" y="179.46" width="4.68" height="9.86" style="fill:#fafafa;"></rect><path d="M94.04,193.2c0,.1-6.19,.19-13.82,.19s-13.82-.08-13.82-.19,6.19-.19,13.82-.19,13.82,.08,13.82,.19Z" style="fill:#e0e0e0;"></path><rect x="77.31" y="199.35" width="4.68" height="9.86" style="fill:#fafafa;"></rect><path d="M94.04,213.08c0,.1-6.19,.19-13.82,.19s-13.82-.08-13.82-.19,6.19-.19,13.82-.19,13.82,.08,13.82,.19Z" style="fill:#e0e0e0;"></path><rect x="77.31" y="219.23" width="4.68" height="9.86" style="fill:#fafafa;"></rect><path d="M94.04,232.96c0,.1-6.19,.19-13.82,.19s-13.82-.08-13.82-.19,6.19-.19,13.82-.19,13.82,.08,13.82,.19Z" style="fill:#e0e0e0;"></path><rect x="77.31" y="239.11" width="4.68" height="9.86" style="fill:#fafafa;"></rect><path d="M94.04,252.85c0,.1-6.19,.19-13.82,.19s-13.82-.08-13.82-.19,6.19-.19,13.82-.19,13.82,.08,13.82,.19Z" style="fill:#e0e0e0;"></path><rect x="77.31" y="259" width="4.68" height="9.86" style="fill:#fafafa;"></rect></g><g><rect x="27.31" y="181.86" width="39.71" height="125.85" style="fill:#f5f5f5;"></rect><rect x="47.16" y="181.86" width="19.85" height="125.51" style="fill:#ebebeb;"></rect><rect x="31.84" y="169.51" width="14.02" height="12.36" style="fill:#f5f5f5;"></rect><rect x="42.52" y="169.51" width="3.34" height="12.36" style="fill:#ebebeb;"></rect><polyline points="24 181.86 24 181.14 68.18 181.14 68.18 181.86" style="fill:#e0e0e0;"></polyline><rect x="35.15" y="187.25" width="3.36" height="7.09" style="fill:#fafafa;"></rect><path d="M47.16,197.12c0,.07-4.45,.14-9.93,.14s-9.93-.06-9.93-.14,4.44-.14,9.93-.14,9.93,.06,9.93,.14Z" style="fill:#e0e0e0;"></path><g><rect x="55.18" y="187.25" width="3.36" height="7.09" style="fill:#e0e0e0;"></rect><path d="M67.19,197.12c0,.07-4.45,.14-9.93,.14s-9.93-.06-9.93-.14,4.44-.14,9.93-.14,9.93,.06,9.93,.14Z" style="fill:#e0e0e0;"></path></g><g><rect x="55.18" y="201.32" width="3.36" height="7.09" style="fill:#e0e0e0;"></rect><path d="M67.19,211.19c0,.07-4.45,.14-9.93,.14s-9.93-.06-9.93-.14,4.44-.14,9.93-.14,9.93,.06,9.93,.14Z" style="fill:#e0e0e0;"></path></g><g><rect x="55.18" y="215.82" width="3.36" height="7.09" style="fill:#e0e0e0;"></rect><path d="M67.19,225.69c0,.07-4.45,.14-9.93,.14s-9.93-.06-9.93-.14,4.44-.14,9.93-.14,9.93,.06,9.93,.14Z" style="fill:#e0e0e0;"></path></g><g><rect x="55.18" y="230.32" width="3.36" height="7.09" style="fill:#e0e0e0;"></rect><path d="M67.19,240.19c0,.07-4.45,.14-9.93,.14s-9.93-.06-9.93-.14,4.44-.14,9.93-.14,9.93,.06,9.93,.14Z" style="fill:#e0e0e0;"></path></g><g><rect x="55.18" y="244.4" width="3.36" height="7.09" style="fill:#e0e0e0;"></rect><path d="M67.19,254.27c0,.07-4.45,.14-9.93,.14s-9.93-.06-9.93-.14,4.44-.14,9.93-.14,9.93,.06,9.93,.14Z" style="fill:#e0e0e0;"></path></g><g><rect x="55.18" y="258.54" width="3.36" height="7.09" style="fill:#e0e0e0;"></rect><rect x="55.18" y="272.86" width="3.36" height="7.09" style="fill:#e0e0e0;"></rect><path d="M67.19,268.41c0,.07-4.45,.14-9.93,.14s-9.93-.06-9.93-.14,4.44-.14,9.93-.14,9.93,.06,9.93,.14Z" style="fill:#e0e0e0;"></path></g><rect x="35.15" y="201.54" width="3.36" height="7.09" style="fill:#fafafa;"></rect><path d="M47.16,211.41c0,.07-4.45,.14-9.93,.14s-9.93-.06-9.93-.14,4.44-.14,9.93-.14,9.93,.06,9.93,.14Z" style="fill:#e0e0e0;"></path><rect x="35.15" y="215.83" width="3.36" height="7.09" style="fill:#fafafa;"></rect><path d="M47.16,225.69c0,.07-4.45,.14-9.93,.14s-9.93-.06-9.93-.14,4.44-.14,9.93-.14,9.93,.06,9.93,.14Z" style="fill:#e0e0e0;"></path><rect x="35.15" y="230.11" width="3.36" height="7.09" style="fill:#fafafa;"></rect><path d="M47.16,239.98c0,.07-4.45,.14-9.93,.14s-9.93-.06-9.93-.14,4.44-.14,9.93-.14,9.93,.06,9.93,.14Z" style="fill:#e0e0e0;"></path><rect x="35.15" y="244.4" width="3.36" height="7.09" style="fill:#fafafa;"></rect><path d="M47.16,254.27c0,.07-4.45,.14-9.93,.14s-9.93-.06-9.93-.14,4.44-.14,9.93-.14,9.93,.06,9.93,.14Z" style="fill:#e0e0e0;"></path><rect x="35.15" y="258.68" width="3.36" height="7.09" style="fill:#fafafa;"></rect><path d="M47.16,268.55c0,.07-4.45,.14-9.93,.14s-9.93-.06-9.93-.14,4.44-.14,9.93-.14,9.93,.06,9.93,.14Z" style="fill:#e0e0e0;"></path><rect x="35.15" y="272.97" width="3.36" height="7.09" style="fill:#fafafa;"></rect></g></g><g><g><rect x="248.75" y="70.62" width="45.27" height="118.87" style="fill:#ebebeb;"></rect><rect x="271.38" y="70.62" width="22.63" height="118.87" style="fill:#e0e0e0;"></rect><rect x="253.91" y="56.49" width="15.98" height="14.13" style="fill:#ebebeb;"></rect><rect x="266.09" y="56.49" width="3.81" height="14.13" style="fill:#e0e0e0;"></rect><rect x="244.97" y="69.8" width="50.36" height=".82" style="fill:#e0e0e0;"></rect><rect x="257.68" y="76.78" width="3.83" height="8.11" style="fill:#fff;"></rect><path d="M271.38,88.07c0,.09-5.07,.15-11.32,.15s-11.32-.07-11.32-.15,5.07-.15,11.32-.15,11.32,.07,11.32,.15Z" style="fill:#e0e0e0;"></path><g><rect x="280.51" y="76.78" width="3.83" height="8.11" style="fill:#f5f5f5;"></rect><path d="M294.21,88.07c0,.09-5.07,.15-11.32,.15s-11.32-.07-11.32-.15,5.07-.15,11.32-.15,11.32,.07,11.32,.15Z" style="fill:#ebebeb;"></path></g><g><rect x="280.51" y="92.88" width="3.83" height="8.11" style="fill:#f5f5f5;"></rect><path d="M294.21,104.16c0,.09-5.07,.15-11.32,.15s-11.32-.07-11.32-.15,5.07-.15,11.32-.15,11.32,.07,11.32,.15Z" style="fill:#ebebeb;"></path></g><g><rect x="280.51" y="109.45" width="3.83" height="8.11" style="fill:#f5f5f5;"></rect><path d="M294.21,120.74c0,.09-5.07,.15-11.32,.15s-11.32-.07-11.32-.15,5.07-.15,11.32-.15,11.32,.07,11.32,.15Z" style="fill:#ebebeb;"></path></g><g><rect x="280.51" y="126.03" width="3.83" height="8.11" style="fill:#f5f5f5;"></rect><path d="M294.21,137.32c0,.09-5.07,.15-11.32,.15s-11.32-.07-11.32-.15,5.07-.15,11.32-.15,11.32,.07,11.32,.15Z" style="fill:#ebebeb;"></path></g><g><rect x="280.51" y="142.14" width="3.83" height="8.11" style="fill:#f5f5f5;"></rect><path d="M294.21,153.42c0,.09-5.07,.15-11.32,.15s-11.32-.07-11.32-.15,5.07-.15,11.32-.15,11.32,.07,11.32,.15Z" style="fill:#ebebeb;"></path></g><g><rect x="280.51" y="158.3" width="3.83" height="8.1" style="fill:#f5f5f5;"></rect><rect x="280.51" y="174.69" width="3.83" height="8.11" style="fill:#f5f5f5;"></rect><path d="M294.21,169.59c0,.09-5.07,.16-11.32,.16s-11.32-.07-11.32-.16,5.07-.15,11.32-.15,11.32,.07,11.32,.15Z" style="fill:#ebebeb;"></path></g><rect x="257.68" y="93.12" width="3.83" height="8.11" style="fill:#fff;"></rect><path d="M271.38,104.41c0,.09-5.07,.15-11.32,.15s-11.32-.07-11.32-.15,5.07-.15,11.32-.15,11.32,.07,11.32,.15Z" style="fill:#e0e0e0;"></path><rect x="257.68" y="109.46" width="3.83" height="8.11" style="fill:#fff;"></rect><path d="M271.38,120.75c0,.09-5.07,.15-11.32,.15s-11.32-.07-11.32-.15,5.07-.15,11.32-.15,11.32,.07,11.32,.15Z" style="fill:#e0e0e0;"></path><rect x="257.68" y="125.8" width="3.83" height="8.11" style="fill:#fff;"></rect><path d="M271.38,137.08c0,.09-5.07,.15-11.32,.15s-11.32-.07-11.32-.15,5.07-.15,11.32-.15,11.32,.07,11.32,.15Z" style="fill:#e0e0e0;"></path><rect x="257.68" y="142.14" width="3.83" height="8.11" style="fill:#fff;"></rect><path d="M271.38,153.42c0,.09-5.07,.15-11.32,.15s-11.32-.07-11.32-.15,5.07-.15,11.32-.15,11.32,.07,11.32,.15Z" style="fill:#e0e0e0;"></path><rect x="257.68" y="158.47" width="3.83" height="8.11" style="fill:#fff;"></rect><path d="M271.38,169.76c0,.09-5.07,.15-11.32,.15s-11.32-.07-11.32-.15,5.07-.15,11.32-.15,11.32,.07,11.32,.15Z" style="fill:#e0e0e0;"></path><rect x="257.68" y="174.81" width="3.83" height="8.11" style="fill:#fff;"></rect></g><g><g><rect x="132.39" y="205.14" width="53.45" height="101.76" style="fill:#e0e0e0;"></rect><rect x="160.78" y="205.14" width="25.06" height="101.76" style="fill:#ebebeb;"></rect></g><g><rect x="143.6" y="214.71" width="4.81" height="11.71" style="fill:#f5f5f5;"></rect><rect x="143.6" y="260.55" width="4.81" height="11.71" style="fill:#f5f5f5;"></rect><path d="M160.78,231.02c0,.1-6.36,.18-14.19,.18s-14.19-.08-14.19-.18,6.35-.18,14.19-.18,14.19,.08,14.19,.18Z" style="fill:#f5f5f5;"></path></g><g><rect x="143.6" y="237.81" width="4.81" height="11.71" style="fill:#f5f5f5;"></rect><path d="M160.78,254.12c0,.1-6.36,.18-14.19,.18s-14.19-.08-14.19-.18,6.35-.18,14.19-.18,14.19,.08,14.19,.18Z" style="fill:#f5f5f5;"></path></g><rect x="166.1" y="214.71" width="4.81" height="11.71" style="fill:#e0e0e0;"></rect><rect x="176.52" y="214.71" width="4.81" height="11.71" style="fill:#e0e0e0;"></rect><rect x="166.1" y="236.94" width="4.81" height="11.71" style="fill:#e0e0e0;"></rect><rect x="176.52" y="236.94" width="4.81" height="11.71" style="fill:#e0e0e0;"></rect><rect x="166.1" y="259.16" width="4.81" height="11.71" style="fill:#e0e0e0;"></rect><rect x="176.52" y="259.16" width="4.81" height="11.71" style="fill:#e0e0e0;"></rect><rect x="128.37" y="202.67" width="61.48" height="2.55" style="fill:#e0e0e0;"></rect><path d="M186.21,205.46c0,.1-11.95,.18-26.68,.18s-26.68-.08-26.68-.18,11.94-.18,26.68-.18,26.68,.08,26.68,.18Z" style="fill:#ebebeb;"></path></g><g><rect x="340.66" y="131.83" width="45.7" height="145.3" style="fill:#f5f5f5;"></rect><rect x="363.51" y="131.83" width="22.85" height="144.9" style="fill:#ebebeb;"></rect><rect x="345.88" y="117.57" width="16.14" height="14.26" style="fill:#f5f5f5;"></rect><rect x="358.17" y="117.57" width="3.85" height="14.26" style="fill:#ebebeb;"></rect><polyline points="336.86 131.83 336.86 131 387.7 131 387.7 131.83" style="fill:#e0e0e0;"></polyline><rect x="349.69" y="138.05" width="3.87" height="8.18" style="fill:#fafafa;"></rect><path d="M363.51,149.45c0,.09-5.12,.16-11.42,.16s-11.43-.07-11.43-.16,5.11-.16,11.43-.16,11.42,.07,11.42,.16Z" style="fill:#e0e0e0;"></path><g><rect x="372.73" y="138.05" width="3.87" height="8.18" style="fill:#e0e0e0;"></rect><path d="M386.56,149.45c0,.09-5.12,.16-11.42,.16s-11.43-.07-11.43-.16,5.11-.16,11.43-.16,11.42,.07,11.42,.16Z" style="fill:#e0e0e0;"></path></g><g><rect x="372.73" y="154.3" width="3.87" height="8.18" style="fill:#e0e0e0;"></rect><path d="M386.56,165.69c0,.09-5.12,.16-11.42,.16s-11.43-.07-11.43-.16,5.11-.16,11.43-.16,11.42,.07,11.42,.16Z" style="fill:#e0e0e0;"></path></g><g><rect x="372.73" y="171.03" width="3.87" height="8.18" style="fill:#e0e0e0;"></rect><path d="M386.56,182.43c0,.09-5.12,.16-11.42,.16s-11.43-.07-11.43-.16,5.11-.16,11.43-.16,11.42,.07,11.42,.16Z" style="fill:#e0e0e0;"></path></g><g><rect x="372.73" y="187.77" width="3.87" height="8.18" style="fill:#e0e0e0;"></rect><path d="M386.56,199.16c0,.09-5.12,.16-11.42,.16s-11.43-.07-11.43-.16,5.11-.16,11.43-.16,11.42,.07,11.42,.16Z" style="fill:#e0e0e0;"></path></g><g><rect x="372.73" y="204.03" width="3.87" height="8.18" style="fill:#e0e0e0;"></rect><path d="M386.56,215.42c0,.09-5.12,.16-11.42,.16s-11.43-.07-11.43-.16,5.11-.16,11.43-.16,11.42,.07,11.42,.16Z" style="fill:#e0e0e0;"></path></g><g><rect x="372.73" y="220.35" width="3.87" height="8.18" style="fill:#e0e0e0;"></rect><rect x="372.73" y="236.89" width="3.87" height="8.18" style="fill:#e0e0e0;"></rect><path d="M386.56,231.75c0,.09-5.12,.16-11.42,.16s-11.43-.07-11.43-.16,5.11-.16,11.43-.16,11.42,.07,11.42,.16Z" style="fill:#e0e0e0;"></path></g><rect x="349.69" y="154.55" width="3.87" height="8.18" style="fill:#fafafa;"></rect><path d="M363.51,165.94c0,.09-5.12,.16-11.42,.16s-11.43-.07-11.43-.16,5.11-.16,11.43-.16,11.42,.07,11.42,.16Z" style="fill:#e0e0e0;"></path><rect x="349.69" y="171.04" width="3.87" height="8.18" style="fill:#fafafa;"></rect><path d="M363.51,182.43c0,.09-5.12,.16-11.42,.16s-11.43-.07-11.43-.16,5.11-.16,11.43-.16,11.42,.07,11.42,.16Z" style="fill:#e0e0e0;"></path><rect x="349.69" y="187.53" width="3.87" height="8.18" style="fill:#fafafa;"></rect><path d="M363.51,198.93c0,.09-5.12,.16-11.42,.16s-11.43-.07-11.43-.16,5.11-.16,11.43-.16,11.42,.07,11.42,.16Z" style="fill:#e0e0e0;"></path><rect x="349.69" y="204.03" width="3.87" height="8.18" style="fill:#fafafa;"></rect><path d="M363.51,215.42c0,.09-5.12,.16-11.42,.16s-11.43-.07-11.43-.16,5.11-.16,11.43-.16,11.42,.07,11.42,.16Z" style="fill:#e0e0e0;"></path><rect x="349.69" y="220.52" width="3.87" height="8.18" style="fill:#fafafa;"></rect><path d="M363.51,231.92c0,.09-5.12,.16-11.42,.16s-11.43-.07-11.43-.16,5.11-.16,11.43-.16,11.42,.07,11.42,.16Z" style="fill:#e0e0e0;"></path><rect x="349.69" y="237.02" width="3.87" height="8.18" style="fill:#fafafa;"></rect></g><g><g><rect x="340.87" y="208.66" width="75" height="99.25" style="fill:#ebebeb;"></rect><rect x="380.7" y="208.66" width="35.17" height="99.25" style="fill:#e0e0e0;"></rect></g><g><rect x="356.59" y="222.09" width="6.74" height="16.44" style="fill:#f5f5f5;"></rect><rect x="356.59" y="286.42" width="6.74" height="16.44" style="fill:#f5f5f5;"></rect><path d="M380.7,244.98c0,.18-8.92,.33-19.92,.33s-19.92-.15-19.92-.33,8.92-.33,19.92-.33,19.92,.15,19.92,.33Z" style="fill:#f5f5f5;"></path></g><g><rect x="356.59" y="254.5" width="6.74" height="16.44" style="fill:#f5f5f5;"></rect><path d="M380.7,277.39c0,.18-8.92,.33-19.92,.33s-19.92-.15-19.92-.33,8.92-.33,19.92-.33,19.92,.15,19.92,.33Z" style="fill:#f5f5f5;"></path></g><rect x="388.17" y="222.09" width="6.74" height="16.44" style="fill:#f5f5f5;"></rect><rect x="402.8" y="222.09" width="6.74" height="16.44" style="fill:#f5f5f5;"></rect><rect x="388.17" y="253.28" width="6.74" height="16.44" style="fill:#f5f5f5;"></rect><rect x="402.8" y="253.28" width="6.74" height="16.44" style="fill:#f5f5f5;"></rect><rect x="388.17" y="284.47" width="6.74" height="16.44" style="fill:#f5f5f5;"></rect><rect x="402.8" y="284.47" width="6.74" height="16.44" style="fill:#f5f5f5;"></rect><rect x="335.23" y="205.2" width="86.28" height="3.58" style="fill:#e0e0e0;"></rect><path d="M416.39,209.12c0,.18-16.76,.33-37.44,.33s-37.44-.15-37.44-.33,16.76-.33,37.44-.33,37.44,.15,37.44,.33Z" style="fill:#ebebeb;"></path></g><g><polygon points="337.45 307.37 261.85 307.37 261.52 187.5 337.13 187.5 337.45 307.37" style="fill:#ebebeb;"></polygon><rect x="299.32" y="187.5" width="37.8" height="119.87" style="fill:#e0e0e0;"></rect><rect x="270.16" y="163.91" width="26.7" height="23.6" style="fill:#ebebeb;"></rect><rect x="290.49" y="163.91" width="6.36" height="23.6" style="fill:#e0e0e0;"></rect><rect x="255.22" y="186.13" width="84.12" height="1.38" style="fill:#e0e0e0;"></rect><rect x="276.45" y="197.8" width="6.4" height="13.54" style="fill:#fff;"></rect><path d="M299.32,216.65c0,.14-8.46,.26-18.9,.26s-18.9-.12-18.9-.26,8.46-.26,18.9-.26,18.9,.12,18.9,.26Z" style="fill:#e0e0e0;"></path><g><rect x="314.58" y="197.8" width="6.4" height="13.54" style="fill:#f5f5f5;"></rect><path d="M337.45,216.65c0,.14-8.46,.26-18.9,.26s-18.9-.12-18.9-.26,8.46-.26,18.9-.26,18.9,.12,18.9,.26Z" style="fill:#ebebeb;"></path></g><g><rect x="314.58" y="224.67" width="6.4" height="13.54" style="fill:#f5f5f5;"></rect><path d="M337.45,243.52c0,.14-8.46,.26-18.9,.26s-18.9-.12-18.9-.26,8.46-.26,18.9-.26,18.9,.12,18.9,.26Z" style="fill:#ebebeb;"></path></g><g><rect x="314.58" y="252.36" width="6.4" height="13.54" style="fill:#f5f5f5;"></rect><path d="M337.45,271.21c0,.14-8.46,.26-18.9,.26s-18.9-.12-18.9-.26,8.46-.26,18.9-.26,18.9,.12,18.9,.26Z" style="fill:#ebebeb;"></path></g><g><rect x="314.58" y="280.05" width="6.4" height="13.54" style="fill:#f5f5f5;"></rect><path d="M337.45,298.9c0,.14-8.46,.26-18.9,.26s-18.9-.12-18.9-.26,8.46-.26,18.9-.26,18.9,.12,18.9,.26Z" style="fill:#ebebeb;"></path></g><rect x="276.45" y="225.08" width="6.4" height="13.54" style="fill:#fff;"></rect><path d="M299.32,243.93c0,.14-8.46,.26-18.9,.26s-18.9-.12-18.9-.26,8.46-.26,18.9-.26,18.9,.12,18.9,.26Z" style="fill:#e0e0e0;"></path><rect x="276.45" y="252.37" width="6.4" height="13.54" style="fill:#fff;"></rect><path d="M299.32,271.22c0,.14-8.46,.26-18.9,.26s-18.9-.12-18.9-.26,8.46-.26,18.9-.26,18.9,.12,18.9,.26Z" style="fill:#e0e0e0;"></path><rect x="276.45" y="279.66" width="6.4" height="13.54" style="fill:#fff;"></rect><path d="M299.32,298.51c0,.14-8.46,.26-18.9,.26s-18.9-.12-18.9-.26,8.46-.26,18.9-.26,18.9,.12,18.9,.26Z" style="fill:#e0e0e0;"></path></g></g><g><g><rect x="182.35" y="86.18" width="62.03" height="220.35" style="fill:#ebebeb;"></rect><g><rect x="187.39" y="93.78" width="5.52" height="11.65" style="fill:#fff;"></rect><rect x="199" y="93.78" width="5.52" height="11.65" style="fill:#fff;"></rect><rect x="210.61" y="93.78" width="5.52" height="11.65" style="fill:#fff;"></rect><rect x="222.21" y="93.78" width="5.52" height="11.65" style="fill:#fff;"></rect><rect x="233.82" y="93.78" width="5.52" height="11.65" style="fill:#fff;"></rect><rect x="187.39" y="110.07" width="5.52" height="11.65" style="fill:#fff;"></rect><rect x="199" y="110.07" width="5.52" height="11.65" style="fill:#fff;"></rect><rect x="210.61" y="110.07" width="5.52" height="11.65" style="fill:#fff;"></rect><rect x="222.21" y="110.07" width="5.52" height="11.65" style="fill:#fff;"></rect><rect x="233.82" y="110.07" width="5.52" height="11.65" style="fill:#fff;"></rect><rect x="187.39" y="126.37" width="5.52" height="11.65" style="fill:#fff;"></rect><rect x="199" y="126.37" width="5.52" height="11.65" style="fill:#fff;"></rect><rect x="210.61" y="126.37" width="5.52" height="11.65" style="fill:#fff;"></rect><rect x="222.21" y="126.37" width="5.52" height="11.65" style="fill:#fff;"></rect><rect x="233.82" y="126.37" width="5.52" height="11.65" style="fill:#fff;"></rect><rect x="187.39" y="142.66" width="5.52" height="11.65" style="fill:#fff;"></rect><rect x="199" y="142.66" width="5.52" height="11.65" style="fill:#fff;"></rect><rect x="210.61" y="142.66" width="5.52" height="11.65" style="fill:#fff;"></rect><rect x="222.21" y="142.66" width="5.52" height="11.65" style="fill:#fff;"></rect><rect x="233.82" y="142.66" width="5.52" height="11.65" style="fill:#fff;"></rect><rect x="187.39" y="158.95" width="5.52" height="11.65" style="fill:#fff;"></rect><rect x="199" y="158.95" width="5.52" height="11.65" style="fill:#fff;"></rect><rect x="210.61" y="158.95" width="5.52" height="11.65" style="fill:#fff;"></rect><rect x="222.21" y="158.95" width="5.52" height="11.65" style="fill:#fff;"></rect><rect x="233.82" y="158.95" width="5.52" height="11.65" style="fill:#fff;"></rect><rect x="187.39" y="175.24" width="5.52" height="11.65" style="fill:#fff;"></rect><rect x="199" y="175.24" width="5.52" height="11.65" style="fill:#fff;"></rect><rect x="210.61" y="175.24" width="5.52" height="11.65" style="fill:#fff;"></rect><rect x="222.21" y="175.24" width="5.52" height="11.65" style="fill:#fff;"></rect><rect x="233.82" y="175.24" width="5.52" height="11.65" style="fill:#fff;"></rect><rect x="187.39" y="191.53" width="5.52" height="11.65" style="fill:#fff;"></rect><rect x="199" y="191.53" width="5.52" height="11.65" style="fill:#fff;"></rect><rect x="210.61" y="191.53" width="5.52" height="11.65" style="fill:#fff;"></rect><rect x="222.21" y="191.53" width="5.52" height="11.65" style="fill:#fff;"></rect><rect x="233.82" y="191.53" width="5.52" height="11.65" style="fill:#fff;"></rect><rect x="187.39" y="207.82" width="5.52" height="11.65" style="fill:#fff;"></rect><rect x="199" y="207.82" width="5.52" height="11.65" style="fill:#fff;"></rect><rect x="210.61" y="207.82" width="5.52" height="11.65" style="fill:#fff;"></rect><rect x="222.21" y="207.82" width="5.52" height="11.65" style="fill:#fff;"></rect><rect x="233.82" y="207.82" width="5.52" height="11.65" style="fill:#fff;"></rect><rect x="187.39" y="224.11" width="5.52" height="11.65" style="fill:#fff;"></rect><rect x="199" y="224.11" width="5.52" height="11.65" style="fill:#fff;"></rect><rect x="210.61" y="224.11" width="5.52" height="11.65" style="fill:#fff;"></rect><rect x="222.21" y="224.11" width="5.52" height="11.65" style="fill:#fff;"></rect><rect x="233.82" y="224.11" width="5.52" height="11.65" style="fill:#fff;"></rect><rect x="187.39" y="240.4" width="5.52" height="11.65" style="fill:#fff;"></rect><rect x="199" y="240.4" width="5.52" height="11.65" style="fill:#fff;"></rect><rect x="210.61" y="240.4" width="5.52" height="11.65" style="fill:#fff;"></rect><rect x="222.21" y="240.4" width="5.52" height="11.65" style="fill:#fff;"></rect><rect x="233.82" y="240.4" width="5.52" height="11.65" style="fill:#fff;"></rect><rect x="187.39" y="256.69" width="5.52" height="11.65" style="fill:#fff;"></rect><rect x="199" y="256.69" width="5.52" height="11.65" style="fill:#fff;"></rect><rect x="210.61" y="256.69" width="5.52" height="11.65" style="fill:#fff;"></rect><rect x="222.21" y="256.69" width="5.52" height="11.65" style="fill:#fff;"></rect><rect x="233.82" y="256.69" width="5.52" height="11.65" style="fill:#fff;"></rect><rect x="187.39" y="272.98" width="5.52" height="11.65" style="fill:#fff;"></rect><rect x="199" y="272.98" width="5.52" height="11.65" style="fill:#fff;"></rect><rect x="210.61" y="272.98" width="5.52" height="11.65" style="fill:#fff;"></rect><rect x="222.21" y="272.98" width="5.52" height="11.65" style="fill:#fff;"></rect><rect x="233.82" y="272.98" width="5.52" height="11.65" style="fill:#fff;"></rect><rect x="187.39" y="288.37" width="5.52" height="11.65" style="fill:#fff;"></rect><rect x="199" y="288.37" width="5.52" height="11.65" style="fill:#fff;"></rect><rect x="210.61" y="288.37" width="5.52" height="11.65" style="fill:#fff;"></rect><rect x="222.21" y="288.37" width="5.52" height="11.65" style="fill:#fff;"></rect><rect x="233.82" y="288.37" width="5.52" height="11.65" style="fill:#fff;"></rect></g><rect x="244.38" y="86.18" width="27.1" height="220.35" style="fill:#e0e0e0;"></rect></g><rect x="210.61" y="93.78" width="5.52" height="11.65" style="fill:#fff;"></rect><rect x="222.21" y="93.78" width="5.52" height="11.65" style="fill:#fff;"></rect><rect x="233.82" y="93.78" width="5.52" height="11.65" style="fill:#fff;"></rect><rect x="210.61" y="110.07" width="5.52" height="11.65" style="fill:#fff;"></rect><rect x="222.21" y="110.07" width="5.52" height="11.65" style="fill:#fff;"></rect><rect x="233.82" y="110.07" width="5.52" height="11.65" style="fill:#fff;"></rect><rect x="210.61" y="126.37" width="5.52" height="11.65" style="fill:#fff;"></rect><rect x="222.21" y="126.37" width="5.52" height="11.65" style="fill:#fff;"></rect><rect x="233.82" y="126.37" width="5.52" height="11.65" style="fill:#fff;"></rect><rect x="210.61" y="142.66" width="5.52" height="11.65" style="fill:#fff;"></rect><rect x="222.21" y="142.66" width="5.52" height="11.65" style="fill:#fff;"></rect><rect x="233.82" y="142.66" width="5.52" height="11.65" style="fill:#fff;"></rect><rect x="210.61" y="158.95" width="5.52" height="11.65" style="fill:#fff;"></rect><rect x="222.21" y="158.95" width="5.52" height="11.65" style="fill:#fff;"></rect><rect x="233.82" y="158.95" width="5.52" height="11.65" style="fill:#fff;"></rect><rect x="210.61" y="175.24" width="5.52" height="11.65" style="fill:#fff;"></rect><rect x="222.21" y="175.24" width="5.52" height="11.65" style="fill:#fff;"></rect><rect x="233.82" y="175.24" width="5.52" height="11.65" style="fill:#fff;"></rect><rect x="210.61" y="191.53" width="5.52" height="11.65" style="fill:#fff;"></rect><rect x="222.21" y="191.53" width="5.52" height="11.65" style="fill:#fff;"></rect><rect x="233.82" y="191.53" width="5.52" height="11.65" style="fill:#fff;"></rect><rect x="210.61" y="207.82" width="5.52" height="11.65" style="fill:#fff;"></rect><rect x="222.21" y="207.82" width="5.52" height="11.65" style="fill:#fff;"></rect><rect x="233.82" y="207.82" width="5.52" height="11.65" style="fill:#fff;"></rect><rect x="210.61" y="224.11" width="5.52" height="11.65" style="fill:#fff;"></rect><rect x="222.21" y="224.11" width="5.52" height="11.65" style="fill:#fff;"></rect><rect x="233.82" y="224.11" width="5.52" height="11.65" style="fill:#fff;"></rect><rect x="210.61" y="240.4" width="5.52" height="11.65" style="fill:#fff;"></rect><rect x="222.21" y="240.4" width="5.52" height="11.65" style="fill:#fff;"></rect><rect x="233.82" y="240.4" width="5.52" height="11.65" style="fill:#fff;"></rect><rect x="210.61" y="256.69" width="5.52" height="11.65" style="fill:#fff;"></rect><rect x="222.21" y="256.69" width="5.52" height="11.65" style="fill:#fff;"></rect><rect x="233.82" y="256.69" width="5.52" height="11.65" style="fill:#fff;"></rect><rect x="210.61" y="272.98" width="5.52" height="11.65" style="fill:#fff;"></rect><rect x="222.21" y="272.98" width="5.52" height="11.65" style="fill:#fff;"></rect><rect x="233.82" y="272.98" width="5.52" height="11.65" style="fill:#fff;"></rect><rect x="210.61" y="288.37" width="5.52" height="11.65" style="fill:#fff;"></rect><rect x="222.21" y="288.37" width="5.52" height="11.65" style="fill:#fff;"></rect><rect x="233.82" y="288.37" width="5.52" height="11.65" style="fill:#fff;"></rect><rect x="250.51" y="93.78" width="5.52" height="11.65" style="fill:#ebebeb;"></rect><rect x="262.12" y="93.78" width="5.52" height="11.65" style="fill:#ebebeb;"></rect><rect x="250.51" y="110.07" width="5.52" height="11.65" style="fill:#ebebeb;"></rect><rect x="262.12" y="110.07" width="5.52" height="11.65" style="fill:#ebebeb;"></rect><rect x="250.51" y="126.37" width="5.52" height="11.65" style="fill:#ebebeb;"></rect><rect x="262.12" y="126.37" width="5.52" height="11.65" style="fill:#ebebeb;"></rect><rect x="250.51" y="142.66" width="5.52" height="11.65" style="fill:#ebebeb;"></rect><rect x="262.12" y="142.66" width="5.52" height="11.65" style="fill:#ebebeb;"></rect><rect x="250.51" y="158.95" width="5.52" height="11.65" style="fill:#ebebeb;"></rect><rect x="262.12" y="158.95" width="5.52" height="11.65" style="fill:#ebebeb;"></rect><rect x="250.51" y="175.24" width="5.52" height="11.65" style="fill:#ebebeb;"></rect><rect x="262.12" y="175.24" width="5.52" height="11.65" style="fill:#ebebeb;"></rect><rect x="250.51" y="191.53" width="5.52" height="11.65" style="fill:#ebebeb;"></rect><rect x="262.12" y="191.53" width="5.52" height="11.65" style="fill:#ebebeb;"></rect><rect x="250.51" y="207.82" width="5.52" height="11.65" style="fill:#ebebeb;"></rect><rect x="262.12" y="207.82" width="5.52" height="11.65" style="fill:#ebebeb;"></rect><rect x="250.51" y="224.11" width="5.52" height="11.65" style="fill:#ebebeb;"></rect><rect x="262.12" y="224.11" width="5.52" height="11.65" style="fill:#ebebeb;"></rect><rect x="250.51" y="240.4" width="5.52" height="11.65" style="fill:#ebebeb;"></rect><rect x="262.12" y="240.4" width="5.52" height="11.65" style="fill:#ebebeb;"></rect><rect x="250.51" y="256.69" width="5.52" height="11.65" style="fill:#ebebeb;"></rect><rect x="262.12" y="256.69" width="5.52" height="11.65" style="fill:#ebebeb;"></rect><rect x="250.51" y="272.98" width="5.52" height="11.65" style="fill:#ebebeb;"></rect><rect x="262.12" y="272.98" width="5.52" height="11.65" style="fill:#ebebeb;"></rect><rect x="250.51" y="288.37" width="5.52" height="11.65" style="fill:#ebebeb;"></rect><rect x="262.12" y="288.37" width="5.52" height="11.65" style="fill:#ebebeb;"></rect></g><g><polygon points="346.15 163.33 281.12 181.79 281.12 306.84 346.15 306.84 346.15 163.33" style="fill:#e0e0e0;"></polygon><polygon points="286.08 183.03 286.59 298.02 339.49 298.02 339.49 167.86 286.08 183.03" style="fill:#fff;"></polygon><path d="M300.38,300.64c-.25,0-.45-27.59-.45-61.63s.2-61.63,.45-61.63,.45,27.59,.45,61.63-.2,61.63-.45,61.63Z" style="fill:#e0e0e0;"></path><path d="M322.61,300.64c-.25,0-.45-29.13-.45-65.06s.2-65.06,.45-65.06,.45,29.12,.45,65.06-.2,65.06-.45,65.06Z" style="fill:#e0e0e0;"></path><path d="M343.14,200.59c0,.25-13.17,.45-29.42,.45s-29.42-.2-29.42-.45,13.17-.45,29.42-.45,29.42,.2,29.42,.45Z" style="fill:#e0e0e0;"></path><path d="M342.59,235.78c0,.25-13.17,.45-29.42,.45s-29.42-.2-29.42-.45,13.17-.45,29.42-.45,29.42,.2,29.42,.45Z" style="fill:#e0e0e0;"></path><path d="M345.89,271.24c0,.25-13.66,.45-30.51,.45s-30.52-.2-30.52-.45,13.66-.45,30.52-.45,30.51,.2,30.51,.45Z" style="fill:#e0e0e0;"></path><path d="M345.9,163.33c.07,.24-14.32,4.54-32.14,9.6-17.82,5.06-32.32,8.96-32.39,8.72-.07-.24,14.32-4.54,32.14-9.6,17.82-5.06,32.32-8.96,32.39-8.72Z" style="fill:#e0e0e0;"></path><path d="M303.35,226.87c-.18-.18,3.02-3.66,7.14-7.79,4.12-4.12,7.61-7.32,7.79-7.14,.18,.18-3.02,3.66-7.14,7.79-4.12,4.12-7.61,7.32-7.79,7.14Z" style="fill:#e0e0e0;"></path><path d="M313.29,212.71c.17,.18-.98,1.56-2.57,3.07-1.59,1.52-3.03,2.6-3.2,2.42-.17-.18,.98-1.56,2.57-3.08,1.59-1.52,3.03-2.6,3.2-2.42Z" style="fill:#e0e0e0;"></path><path d="M316.96,252.52c.18,.18-2.55,3.25-6.1,6.86-3.55,3.61-6.57,6.4-6.75,6.22-.18-.18,2.55-3.25,6.1-6.86,3.55-3.61,6.57-6.4,6.75-6.22Z" style="fill:#e0e0e0;"></path><path d="M311.97,254.08c.19,.17-.72,1.48-2.02,2.92-1.31,1.44-2.51,2.48-2.7,2.31-.19-.17,.72-1.48,2.03-2.92,1.3-1.44,2.51-2.48,2.7-2.31Z" style="fill:#e0e0e0;"></path><path d="M334.43,183.05c.19,.16-1.17,2.07-3.03,4.25-1.87,2.18-3.53,3.82-3.72,3.66-.19-.16,1.17-2.06,3.03-4.25,1.86-2.18,3.53-3.82,3.72-3.66Z" style="fill:#e0e0e0;"></path><path d="M332.92,180.74c.19,.17-.78,1.54-2.15,3.05-1.38,1.52-2.64,2.61-2.83,2.44-.19-.17,.78-1.54,2.15-3.05,1.38-1.52,2.64-2.61,2.83-2.44Z" style="fill:#e0e0e0;"></path><path d="M295.5,283.7c.2,.15-.63,1.67-1.85,3.41-1.23,1.74-2.39,3.03-2.6,2.88-.2-.15,.63-1.67,1.86-3.41,1.23-1.74,2.39-3.02,2.6-2.88Z" style="fill:#e0e0e0;"></path><path d="M293.92,281.6c.18,.17-.55,1.25-1.63,2.41-1.09,1.16-2.11,1.96-2.3,1.78-.18-.17,.55-1.25,1.63-2.41,1.08-1.16,2.11-1.96,2.3-1.78Z" style="fill:#e0e0e0;"></path></g></g><g><g><g><rect x="370.98" y="132.2" width="55.27" height="175.16" style="fill:#f5f5f5;"></rect><rect x="398.61" y="132.2" width="27.63" height="174.67" style="fill:#ebebeb;"></rect><rect x="377.29" y="115" width="19.52" height="17.2" style="fill:#f5f5f5;"></rect><rect x="392.15" y="115" width="4.65" height="17.2" style="fill:#ebebeb;"></rect><polyline points="366.37 132.2 366.37 131.19 427.86 131.19 427.86 132.2" style="fill:#e0e0e0;"></polyline><rect x="381.89" y="139.69" width="4.68" height="9.86" style="fill:#fafafa;"></rect><path d="M398.61,153.43c0,.1-6.19,.19-13.82,.19s-13.82-.08-13.82-.19,6.19-.19,13.82-.19,13.82,.08,13.82,.19Z" style="fill:#e0e0e0;"></path><g><rect x="409.76" y="139.69" width="4.68" height="9.86" style="fill:#e0e0e0;"></rect><path d="M426.48,153.43c0,.1-6.19,.19-13.82,.19s-13.82-.08-13.82-.19,6.18-.19,13.82-.19,13.82,.08,13.82,.19Z" style="fill:#e0e0e0;"></path></g><g><rect x="409.76" y="159.28" width="4.68" height="9.86" style="fill:#e0e0e0;"></rect><path d="M426.48,173.02c0,.1-6.19,.19-13.82,.19s-13.82-.08-13.82-.19,6.18-.19,13.82-.19,13.82,.08,13.82,.19Z" style="fill:#e0e0e0;"></path></g><g><rect x="409.76" y="179.45" width="4.68" height="9.86" style="fill:#e0e0e0;"></rect><path d="M426.48,193.19c0,.1-6.19,.19-13.82,.19s-13.82-.08-13.82-.19,6.18-.19,13.82-.19,13.82,.08,13.82,.19Z" style="fill:#e0e0e0;"></path></g><g><rect x="409.76" y="199.63" width="4.68" height="9.86" style="fill:#e0e0e0;"></rect><path d="M426.48,213.37c0,.1-6.19,.19-13.82,.19s-13.82-.08-13.82-.19,6.18-.19,13.82-.19,13.82,.08,13.82,.19Z" style="fill:#e0e0e0;"></path></g><g><rect x="409.76" y="219.23" width="4.68" height="9.86" style="fill:#e0e0e0;"></rect><path d="M426.48,232.96c0,.1-6.19,.19-13.82,.19s-13.82-.08-13.82-.19,6.18-.19,13.82-.19,13.82,.08,13.82,.19Z" style="fill:#e0e0e0;"></path></g><g><rect x="409.76" y="238.91" width="4.68" height="9.86" style="fill:#e0e0e0;"></rect><rect x="409.76" y="258.84" width="4.68" height="9.86" style="fill:#e0e0e0;"></rect><path d="M426.48,252.64c0,.1-6.19,.19-13.82,.19s-13.82-.08-13.82-.19,6.18-.19,13.82-.19,13.82,.08,13.82,.19Z" style="fill:#e0e0e0;"></path></g><rect x="381.89" y="159.58" width="4.68" height="9.86" style="fill:#fafafa;"></rect><path d="M398.61,173.31c0,.1-6.19,.19-13.82,.19s-13.82-.08-13.82-.19,6.19-.19,13.82-.19,13.82,.08,13.82,.19Z" style="fill:#e0e0e0;"></path><rect x="381.89" y="179.46" width="4.68" height="9.86" style="fill:#fafafa;"></rect><path d="M398.61,193.2c0,.1-6.19,.19-13.82,.19s-13.82-.08-13.82-.19,6.19-.19,13.82-.19,13.82,.08,13.82,.19Z" style="fill:#e0e0e0;"></path><rect x="381.89" y="199.35" width="4.68" height="9.86" style="fill:#fafafa;"></rect><path d="M398.61,213.08c0,.1-6.19,.19-13.82,.19s-13.82-.08-13.82-.19,6.19-.19,13.82-.19,13.82,.08,13.82,.19Z" style="fill:#e0e0e0;"></path><rect x="381.89" y="219.23" width="4.68" height="9.86" style="fill:#fafafa;"></rect><path d="M398.61,232.96c0,.1-6.19,.19-13.82,.19s-13.82-.08-13.82-.19,6.19-.19,13.82-.19,13.82,.08,13.82,.19Z" style="fill:#e0e0e0;"></path><rect x="381.89" y="239.11" width="4.68" height="9.86" style="fill:#fafafa;"></rect><path d="M398.61,252.85c0,.1-6.19,.19-13.82,.19s-13.82-.08-13.82-.19,6.19-.19,13.82-.19,13.82,.08,13.82,.19Z" style="fill:#e0e0e0;"></path><rect x="381.89" y="259" width="4.68" height="9.86" style="fill:#fafafa;"></rect></g><g><rect x="331.88" y="181.86" width="39.71" height="125.85" style="fill:#f5f5f5;"></rect><rect x="351.73" y="181.86" width="19.85" height="125.51" style="fill:#ebebeb;"></rect><rect x="336.41" y="169.51" width="14.02" height="12.36" style="fill:#f5f5f5;"></rect><rect x="347.09" y="169.51" width="3.34" height="12.36" style="fill:#ebebeb;"></rect><polyline points="328.57 181.86 328.57 181.14 372.75 181.14 372.75 181.86" style="fill:#e0e0e0;"></polyline><rect x="339.72" y="187.25" width="3.36" height="7.09" style="fill:#fafafa;"></rect><path d="M351.73,197.12c0,.07-4.45,.14-9.93,.14s-9.93-.06-9.93-.14,4.44-.14,9.93-.14,9.93,.06,9.93,.14Z" style="fill:#e0e0e0;"></path><g><rect x="359.75" y="187.25" width="3.36" height="7.09" style="fill:#e0e0e0;"></rect><path d="M371.76,197.12c0,.07-4.45,.14-9.93,.14s-9.93-.06-9.93-.14,4.44-.14,9.93-.14,9.93,.06,9.93,.14Z" style="fill:#e0e0e0;"></path></g><g><rect x="359.75" y="201.32" width="3.36" height="7.09" style="fill:#e0e0e0;"></rect><path d="M371.76,211.19c0,.07-4.45,.14-9.93,.14s-9.93-.06-9.93-.14,4.44-.14,9.93-.14,9.93,.06,9.93,.14Z" style="fill:#e0e0e0;"></path></g><g><rect x="359.75" y="215.82" width="3.36" height="7.09" style="fill:#e0e0e0;"></rect><path d="M371.76,225.69c0,.07-4.45,.14-9.93,.14s-9.93-.06-9.93-.14,4.44-.14,9.93-.14,9.93,.06,9.93,.14Z" style="fill:#e0e0e0;"></path></g><g><rect x="359.75" y="230.32" width="3.36" height="7.09" style="fill:#e0e0e0;"></rect><path d="M371.76,240.19c0,.07-4.45,.14-9.93,.14s-9.93-.06-9.93-.14,4.44-.14,9.93-.14,9.93,.06,9.93,.14Z" style="fill:#e0e0e0;"></path></g><g><rect x="359.75" y="244.4" width="3.36" height="7.09" style="fill:#e0e0e0;"></rect><path d="M371.76,254.27c0,.07-4.45,.14-9.93,.14s-9.93-.06-9.93-.14,4.44-.14,9.93-.14,9.93,.06,9.93,.14Z" style="fill:#e0e0e0;"></path></g><g><rect x="359.75" y="258.54" width="3.36" height="7.09" style="fill:#e0e0e0;"></rect><rect x="359.75" y="272.86" width="3.36" height="7.09" style="fill:#e0e0e0;"></rect><path d="M371.76,268.41c0,.07-4.45,.14-9.93,.14s-9.93-.06-9.93-.14,4.44-.14,9.93-.14,9.93,.06,9.93,.14Z" style="fill:#e0e0e0;"></path></g><rect x="339.72" y="201.54" width="3.36" height="7.09" style="fill:#fafafa;"></rect><path d="M351.73,211.41c0,.07-4.45,.14-9.93,.14s-9.93-.06-9.93-.14,4.44-.14,9.93-.14,9.93,.06,9.93,.14Z" style="fill:#e0e0e0;"></path><rect x="339.72" y="215.83" width="3.36" height="7.09" style="fill:#fafafa;"></rect><path d="M351.73,225.69c0,.07-4.45,.14-9.93,.14s-9.93-.06-9.93-.14,4.44-.14,9.93-.14,9.93,.06,9.93,.14Z" style="fill:#e0e0e0;"></path><rect x="339.72" y="230.11" width="3.36" height="7.09" style="fill:#fafafa;"></rect><path d="M351.73,239.98c0,.07-4.45,.14-9.93,.14s-9.93-.06-9.93-.14,4.44-.14,9.93-.14,9.93,.06,9.93,.14Z" style="fill:#e0e0e0;"></path><rect x="339.72" y="244.4" width="3.36" height="7.09" style="fill:#fafafa;"></rect><path d="M351.73,254.27c0,.07-4.45,.14-9.93,.14s-9.93-.06-9.93-.14,4.44-.14,9.93-.14,9.93,.06,9.93,.14Z" style="fill:#e0e0e0;"></path><rect x="339.72" y="258.68" width="3.36" height="7.09" style="fill:#fafafa;"></rect><path d="M351.73,268.55c0,.07-4.45,.14-9.93,.14s-9.93-.06-9.93-.14,4.44-.14,9.93-.14,9.93,.06,9.93,.14Z" style="fill:#e0e0e0;"></path><rect x="339.72" y="272.97" width="3.36" height="7.09" style="fill:#fafafa;"></rect></g></g><g><g><g><rect x="436.88" y="205.09" width="53.45" height="101.76" style="fill:#e0e0e0;"></rect><rect x="465.27" y="205.09" width="25.06" height="101.76" style="fill:#ebebeb;"></rect></g><g><rect x="448.09" y="214.67" width="4.81" height="11.71" style="fill:#f5f5f5;"></rect><rect x="448.09" y="260.51" width="4.81" height="11.71" style="fill:#f5f5f5;"></rect><path d="M465.27,230.98c0,.1-6.36,.18-14.19,.18s-14.19-.08-14.19-.18,6.35-.18,14.19-.18,14.19,.08,14.19,.18Z" style="fill:#f5f5f5;"></path></g><g><rect x="448.09" y="237.76" width="4.81" height="11.71" style="fill:#f5f5f5;"></rect><path d="M465.27,254.07c0,.1-6.36,.18-14.19,.18s-14.19-.08-14.19-.18,6.35-.18,14.19-.18,14.19,.08,14.19,.18Z" style="fill:#f5f5f5;"></path></g><rect x="470.59" y="214.67" width="4.81" height="11.71" style="fill:#e0e0e0;"></rect><rect x="481.02" y="214.67" width="4.81" height="11.71" style="fill:#e0e0e0;"></rect><rect x="470.59" y="236.89" width="4.81" height="11.71" style="fill:#e0e0e0;"></rect><rect x="481.02" y="236.89" width="4.81" height="11.71" style="fill:#e0e0e0;"></rect><rect x="470.59" y="259.12" width="4.81" height="11.71" style="fill:#e0e0e0;"></rect><rect x="481.02" y="259.12" width="4.81" height="11.71" style="fill:#e0e0e0;"></rect><rect x="432.86" y="202.63" width="61.48" height="2.55" style="fill:#e0e0e0;"></rect><path d="M490.7,205.42c0,.1-11.95,.18-26.68,.18s-26.68-.08-26.68-.18,11.94-.18,26.68-.18,26.68,.08,26.68,.18Z" style="fill:#ebebeb;"></path></g><g><rect x="645.16" y="131.79" width="45.7" height="145.3" style="fill:#f5f5f5;"></rect><rect x="668.01" y="131.79" width="22.85" height="144.9" style="fill:#ebebeb;"></rect><rect x="650.37" y="117.52" width="16.14" height="14.26" style="fill:#f5f5f5;"></rect><rect x="662.67" y="117.52" width="3.85" height="14.26" style="fill:#ebebeb;"></rect><polyline points="641.35 131.79 641.35 130.95 692.19 130.95 692.19 131.79" style="fill:#e0e0e0;"></polyline><rect x="654.18" y="138.01" width="3.87" height="8.18" style="fill:#fafafa;"></rect><path d="M668.01,149.4c0,.09-5.12,.16-11.42,.16s-11.43-.07-11.43-.16,5.11-.16,11.43-.16,11.42,.07,11.42,.16Z" style="fill:#e0e0e0;"></path><g><rect x="677.23" y="138.01" width="3.87" height="8.18" style="fill:#e0e0e0;"></rect><path d="M691.06,149.4c0,.09-5.12,.16-11.42,.16s-11.43-.07-11.43-.16,5.11-.16,11.43-.16,11.42,.07,11.42,.16Z" style="fill:#e0e0e0;"></path></g><g><rect x="677.23" y="154.25" width="3.87" height="8.18" style="fill:#e0e0e0;"></rect><path d="M691.06,165.65c0,.09-5.12,.16-11.42,.16s-11.43-.07-11.43-.16,5.11-.16,11.43-.16,11.42,.07,11.42,.16Z" style="fill:#e0e0e0;"></path></g><g><rect x="677.23" y="170.99" width="3.87" height="8.18" style="fill:#e0e0e0;"></rect><path d="M691.06,182.38c0,.09-5.12,.16-11.42,.16s-11.43-.07-11.43-.16,5.11-.16,11.43-.16,11.42,.07,11.42,.16Z" style="fill:#e0e0e0;"></path></g><g><rect x="677.23" y="187.73" width="3.87" height="8.18" style="fill:#e0e0e0;"></rect><path d="M691.06,199.12c0,.09-5.12,.16-11.42,.16s-11.43-.07-11.43-.16,5.11-.16,11.43-.16,11.42,.07,11.42,.16Z" style="fill:#e0e0e0;"></path></g><g><rect x="677.23" y="203.98" width="3.87" height="8.18" style="fill:#e0e0e0;"></rect><path d="M691.06,215.38c0,.09-5.12,.16-11.42,.16s-11.43-.07-11.43-.16,5.11-.16,11.43-.16,11.42,.07,11.42,.16Z" style="fill:#e0e0e0;"></path></g><g><rect x="677.23" y="220.31" width="3.87" height="8.18" style="fill:#e0e0e0;"></rect><rect x="677.23" y="236.85" width="3.87" height="8.18" style="fill:#e0e0e0;"></rect><path d="M691.06,231.7c0,.09-5.12,.16-11.42,.16s-11.43-.07-11.43-.16,5.11-.16,11.43-.16,11.42,.07,11.42,.16Z" style="fill:#e0e0e0;"></path></g><rect x="654.18" y="154.5" width="3.87" height="8.18" style="fill:#fafafa;"></rect><path d="M668.01,165.9c0,.09-5.12,.16-11.42,.16s-11.43-.07-11.43-.16,5.11-.16,11.43-.16,11.42,.07,11.42,.16Z" style="fill:#e0e0e0;"></path><rect x="654.18" y="171" width="3.87" height="8.18" style="fill:#fafafa;"></rect><path d="M668.01,182.39c0,.09-5.12,.16-11.42,.16s-11.43-.07-11.43-.16,5.11-.16,11.43-.16,11.42,.07,11.42,.16Z" style="fill:#e0e0e0;"></path><rect x="654.18" y="187.49" width="3.87" height="8.18" style="fill:#fafafa;"></rect><path d="M668.01,198.88c0,.09-5.12,.16-11.42,.16s-11.43-.07-11.43-.16,5.11-.16,11.43-.16,11.42,.07,11.42,.16Z" style="fill:#e0e0e0;"></path><rect x="654.18" y="203.98" width="3.87" height="8.18" style="fill:#fafafa;"></rect><path d="M668.01,215.38c0,.09-5.12,.16-11.42,.16s-11.43-.07-11.43-.16,5.11-.16,11.43-.16,11.42,.07,11.42,.16Z" style="fill:#e0e0e0;"></path><rect x="654.18" y="220.48" width="3.87" height="8.18" style="fill:#fafafa;"></rect><path d="M668.01,231.87c0,.09-5.12,.16-11.42,.16s-11.43-.07-11.43-.16,5.11-.16,11.43-.16,11.42,.07,11.42,.16Z" style="fill:#e0e0e0;"></path><rect x="654.18" y="236.97" width="3.87" height="8.18" style="fill:#fafafa;"></rect></g><g><g><rect x="645.36" y="208.61" width="75" height="99.25" style="fill:#ebebeb;"></rect><rect x="685.19" y="208.61" width="35.17" height="99.25" style="fill:#e0e0e0;"></rect></g><g><rect x="661.08" y="222.05" width="6.74" height="16.44" style="fill:#f5f5f5;"></rect><rect x="661.08" y="286.38" width="6.74" height="16.44" style="fill:#f5f5f5;"></rect><path d="M685.19,244.94c0,.18-8.92,.33-19.92,.33s-19.92-.15-19.92-.33,8.92-.33,19.92-.33,19.92,.15,19.92,.33Z" style="fill:#f5f5f5;"></path></g><g><rect x="661.08" y="254.46" width="6.74" height="16.44" style="fill:#f5f5f5;"></rect><path d="M685.19,277.35c0,.18-8.92,.33-19.92,.33s-19.92-.15-19.92-.33,8.92-.33,19.92-.33,19.92,.15,19.92,.33Z" style="fill:#f5f5f5;"></path></g><rect x="692.66" y="222.05" width="6.74" height="16.44" style="fill:#f5f5f5;"></rect><rect x="707.29" y="222.05" width="6.74" height="16.44" style="fill:#f5f5f5;"></rect><rect x="692.66" y="253.24" width="6.74" height="16.44" style="fill:#f5f5f5;"></rect><rect x="707.29" y="253.24" width="6.74" height="16.44" style="fill:#f5f5f5;"></rect><rect x="692.66" y="284.43" width="6.74" height="16.44" style="fill:#f5f5f5;"></rect><rect x="707.29" y="284.43" width="6.74" height="16.44" style="fill:#f5f5f5;"></rect><rect x="639.72" y="205.16" width="86.28" height="3.58" style="fill:#e0e0e0;"></rect><path d="M720.89,209.07c0,.18-16.76,.33-37.44,.33s-37.44-.15-37.44-.33,16.76-.33,37.44-.33,37.44,.15,37.44,.33Z" style="fill:#ebebeb;"></path></g><g><polygon points="641.95 307.33 566.34 307.33 566.02 187.46 641.62 187.46 641.95 307.33" style="fill:#ebebeb;"></polygon><rect x="603.82" y="187.46" width="37.8" height="119.87" style="fill:#e0e0e0;"></rect><rect x="574.65" y="163.86" width="26.7" height="23.6" style="fill:#ebebeb;"></rect><rect x="594.98" y="163.86" width="6.36" height="23.6" style="fill:#e0e0e0;"></rect><rect x="559.71" y="186.08" width="84.12" height="1.38" style="fill:#e0e0e0;"></rect><rect x="580.94" y="197.75" width="6.4" height="13.54" style="fill:#fff;"></rect><path d="M603.82,216.6c0,.14-8.46,.26-18.9,.26s-18.9-.12-18.9-.26,8.46-.26,18.9-.26,18.9,.12,18.9,.26Z" style="fill:#e0e0e0;"></path><g><rect x="619.07" y="197.75" width="6.4" height="13.54" style="fill:#f5f5f5;"></rect><path d="M641.95,216.6c0,.14-8.46,.26-18.9,.26s-18.9-.12-18.9-.26,8.46-.26,18.9-.26,18.9,.12,18.9,.26Z" style="fill:#ebebeb;"></path></g><g><rect x="619.07" y="224.63" width="6.4" height="13.54" style="fill:#f5f5f5;"></rect><path d="M641.95,243.48c0,.14-8.46,.26-18.9,.26s-18.9-.12-18.9-.26,8.46-.26,18.9-.26,18.9,.12,18.9,.26Z" style="fill:#ebebeb;"></path></g><g><rect x="619.07" y="252.32" width="6.4" height="13.54" style="fill:#f5f5f5;"></rect><path d="M641.95,271.17c0,.14-8.46,.26-18.9,.26s-18.9-.12-18.9-.26,8.46-.26,18.9-.26,18.9,.12,18.9,.26Z" style="fill:#ebebeb;"></path></g><g><rect x="619.07" y="280" width="6.4" height="13.54" style="fill:#f5f5f5;"></rect><path d="M641.95,298.85c0,.14-8.46,.26-18.9,.26s-18.9-.12-18.9-.26,8.46-.26,18.9-.26,18.9,.12,18.9,.26Z" style="fill:#ebebeb;"></path></g><rect x="580.94" y="225.04" width="6.4" height="13.54" style="fill:#fff;"></rect><path d="M603.82,243.89c0,.14-8.46,.26-18.9,.26s-18.9-.12-18.9-.26,8.46-.26,18.9-.26,18.9,.12,18.9,.26Z" style="fill:#e0e0e0;"></path><rect x="580.94" y="252.32" width="6.4" height="13.54" style="fill:#fff;"></rect><path d="M603.82,271.17c0,.14-8.46,.26-18.9,.26s-18.9-.12-18.9-.26,8.46-.26,18.9-.26,18.9,.12,18.9,.26Z" style="fill:#e0e0e0;"></path><rect x="580.94" y="279.61" width="6.4" height="13.54" style="fill:#fff;"></rect><path d="M603.82,298.46c0,.14-8.46,.26-18.9,.26s-18.9-.12-18.9-.26,8.46-.26,18.9-.26,18.9,.12,18.9,.26Z" style="fill:#e0e0e0;"></path></g></g><g><g><rect x="486.92" y="87.02" width="62.03" height="220.35" style="fill:#ebebeb;"></rect><g><rect x="491.96" y="94.63" width="5.52" height="11.65" style="fill:#fff;"></rect><rect x="503.57" y="94.63" width="5.52" height="11.65" style="fill:#fff;"></rect><rect x="515.18" y="94.63" width="5.52" height="11.65" style="fill:#fff;"></rect><rect x="526.79" y="94.63" width="5.52" height="11.65" style="fill:#fff;"></rect><rect x="538.39" y="94.63" width="5.52" height="11.65" style="fill:#fff;"></rect><rect x="491.96" y="110.92" width="5.52" height="11.65" style="fill:#fff;"></rect><rect x="503.57" y="110.92" width="5.52" height="11.65" style="fill:#fff;"></rect><rect x="515.18" y="110.92" width="5.52" height="11.65" style="fill:#fff;"></rect><rect x="526.79" y="110.92" width="5.52" height="11.65" style="fill:#fff;"></rect><rect x="538.39" y="110.92" width="5.52" height="11.65" style="fill:#fff;"></rect><rect x="491.96" y="127.21" width="5.52" height="11.65" style="fill:#fff;"></rect><rect x="503.57" y="127.21" width="5.52" height="11.65" style="fill:#fff;"></rect><rect x="515.18" y="127.21" width="5.52" height="11.65" style="fill:#fff;"></rect><rect x="526.79" y="127.21" width="5.52" height="11.65" style="fill:#fff;"></rect><rect x="538.39" y="127.21" width="5.52" height="11.65" style="fill:#fff;"></rect><rect x="491.96" y="143.5" width="5.52" height="11.65" style="fill:#fff;"></rect><rect x="503.57" y="143.5" width="5.52" height="11.65" style="fill:#fff;"></rect><rect x="515.18" y="143.5" width="5.52" height="11.65" style="fill:#fff;"></rect><rect x="526.79" y="143.5" width="5.52" height="11.65" style="fill:#fff;"></rect><rect x="538.39" y="143.5" width="5.52" height="11.65" style="fill:#fff;"></rect><rect x="491.96" y="159.79" width="5.52" height="11.65" style="fill:#fff;"></rect><rect x="503.57" y="159.79" width="5.52" height="11.65" style="fill:#fff;"></rect><rect x="515.18" y="159.79" width="5.52" height="11.65" style="fill:#fff;"></rect><rect x="526.79" y="159.79" width="5.52" height="11.65" style="fill:#fff;"></rect><rect x="538.39" y="159.79" width="5.52" height="11.65" style="fill:#fff;"></rect><rect x="491.96" y="176.08" width="5.52" height="11.65" style="fill:#fff;"></rect><rect x="503.57" y="176.08" width="5.52" height="11.65" style="fill:#fff;"></rect><rect x="515.18" y="176.08" width="5.52" height="11.65" style="fill:#fff;"></rect><rect x="526.79" y="176.08" width="5.52" height="11.65" style="fill:#fff;"></rect><rect x="538.39" y="176.08" width="5.52" height="11.65" style="fill:#fff;"></rect><rect x="491.96" y="192.37" width="5.52" height="11.65" style="fill:#fff;"></rect><rect x="503.57" y="192.37" width="5.52" height="11.65" style="fill:#fff;"></rect><rect x="515.18" y="192.37" width="5.52" height="11.65" style="fill:#fff;"></rect><rect x="526.79" y="192.37" width="5.52" height="11.65" style="fill:#fff;"></rect><rect x="538.39" y="192.37" width="5.52" height="11.65" style="fill:#fff;"></rect><rect x="491.96" y="208.66" width="5.52" height="11.65" style="fill:#fff;"></rect><rect x="503.57" y="208.66" width="5.52" height="11.65" style="fill:#fff;"></rect><rect x="515.18" y="208.66" width="5.52" height="11.65" style="fill:#fff;"></rect><rect x="526.79" y="208.66" width="5.52" height="11.65" style="fill:#fff;"></rect><rect x="538.39" y="208.66" width="5.52" height="11.65" style="fill:#fff;"></rect><rect x="491.96" y="224.95" width="5.52" height="11.65" style="fill:#fff;"></rect><rect x="503.57" y="224.95" width="5.52" height="11.65" style="fill:#fff;"></rect><rect x="515.18" y="224.95" width="5.52" height="11.65" style="fill:#fff;"></rect><rect x="526.79" y="224.95" width="5.52" height="11.65" style="fill:#fff;"></rect><rect x="538.39" y="224.95" width="5.52" height="11.65" style="fill:#fff;"></rect><rect x="491.96" y="241.24" width="5.52" height="11.65" style="fill:#fff;"></rect><rect x="503.57" y="241.24" width="5.52" height="11.65" style="fill:#fff;"></rect><rect x="515.18" y="241.24" width="5.52" height="11.65" style="fill:#fff;"></rect><rect x="526.79" y="241.24" width="5.52" height="11.65" style="fill:#fff;"></rect><rect x="538.39" y="241.24" width="5.52" height="11.65" style="fill:#fff;"></rect><rect x="491.96" y="257.53" width="5.52" height="11.65" style="fill:#fff;"></rect><rect x="503.57" y="257.53" width="5.52" height="11.65" style="fill:#fff;"></rect><rect x="515.18" y="257.53" width="5.52" height="11.65" style="fill:#fff;"></rect><rect x="526.79" y="257.53" width="5.52" height="11.65" style="fill:#fff;"></rect><rect x="538.39" y="257.53" width="5.52" height="11.65" style="fill:#fff;"></rect><rect x="491.96" y="273.82" width="5.52" height="11.65" style="fill:#fff;"></rect><rect x="503.57" y="273.82" width="5.52" height="11.65" style="fill:#fff;"></rect><rect x="515.18" y="273.82" width="5.52" height="11.65" style="fill:#fff;"></rect><rect x="526.79" y="273.82" width="5.52" height="11.65" style="fill:#fff;"></rect><rect x="538.39" y="273.82" width="5.52" height="11.65" style="fill:#fff;"></rect><rect x="491.96" y="289.21" width="5.52" height="11.65" style="fill:#fff;"></rect><rect x="503.57" y="289.21" width="5.52" height="11.65" style="fill:#fff;"></rect><rect x="515.18" y="289.21" width="5.52" height="11.65" style="fill:#fff;"></rect><rect x="526.79" y="289.21" width="5.52" height="11.65" style="fill:#fff;"></rect><rect x="538.39" y="289.21" width="5.52" height="11.65" style="fill:#fff;"></rect></g><rect x="548.95" y="87.02" width="27.1" height="220.35" style="fill:#e0e0e0;"></rect></g><rect x="515.18" y="94.63" width="5.52" height="11.65" style="fill:#fff;"></rect><rect x="526.79" y="94.63" width="5.52" height="11.65" style="fill:#fff;"></rect><rect x="538.39" y="94.63" width="5.52" height="11.65" style="fill:#fff;"></rect><rect x="515.18" y="110.92" width="5.52" height="11.65" style="fill:#fff;"></rect><rect x="526.79" y="110.92" width="5.52" height="11.65" style="fill:#fff;"></rect><rect x="538.39" y="110.92" width="5.52" height="11.65" style="fill:#fff;"></rect><rect x="515.18" y="127.21" width="5.52" height="11.65" style="fill:#fff;"></rect><rect x="526.79" y="127.21" width="5.52" height="11.65" style="fill:#fff;"></rect><rect x="538.39" y="127.21" width="5.52" height="11.65" style="fill:#fff;"></rect><rect x="515.18" y="143.5" width="5.52" height="11.65" style="fill:#fff;"></rect><rect x="526.79" y="143.5" width="5.52" height="11.65" style="fill:#fff;"></rect><rect x="538.39" y="143.5" width="5.52" height="11.65" style="fill:#fff;"></rect><rect x="515.18" y="159.79" width="5.52" height="11.65" style="fill:#fff;"></rect><rect x="526.79" y="159.79" width="5.52" height="11.65" style="fill:#fff;"></rect><rect x="538.39" y="159.79" width="5.52" height="11.65" style="fill:#fff;"></rect><rect x="515.18" y="176.08" width="5.52" height="11.65" style="fill:#fff;"></rect><rect x="526.79" y="176.08" width="5.52" height="11.65" style="fill:#fff;"></rect><rect x="538.39" y="176.08" width="5.52" height="11.65" style="fill:#fff;"></rect><rect x="515.18" y="192.37" width="5.52" height="11.65" style="fill:#fff;"></rect><rect x="526.79" y="192.37" width="5.52" height="11.65" style="fill:#fff;"></rect><rect x="538.39" y="192.37" width="5.52" height="11.65" style="fill:#fff;"></rect><rect x="515.18" y="208.66" width="5.52" height="11.65" style="fill:#fff;"></rect><rect x="526.79" y="208.66" width="5.52" height="11.65" style="fill:#fff;"></rect><rect x="538.39" y="208.66" width="5.52" height="11.65" style="fill:#fff;"></rect><rect x="515.18" y="224.95" width="5.52" height="11.65" style="fill:#fff;"></rect><rect x="526.79" y="224.95" width="5.52" height="11.65" style="fill:#fff;"></rect><rect x="538.39" y="224.95" width="5.52" height="11.65" style="fill:#fff;"></rect><rect x="515.18" y="241.24" width="5.52" height="11.65" style="fill:#fff;"></rect><rect x="526.79" y="241.24" width="5.52" height="11.65" style="fill:#fff;"></rect><rect x="538.39" y="241.24" width="5.52" height="11.65" style="fill:#fff;"></rect><rect x="515.18" y="257.53" width="5.52" height="11.65" style="fill:#fff;"></rect><rect x="526.79" y="257.53" width="5.52" height="11.65" style="fill:#fff;"></rect><rect x="538.39" y="257.53" width="5.52" height="11.65" style="fill:#fff;"></rect><rect x="515.18" y="273.82" width="5.52" height="11.65" style="fill:#fff;"></rect><rect x="526.79" y="273.82" width="5.52" height="11.65" style="fill:#fff;"></rect><rect x="538.39" y="273.82" width="5.52" height="11.65" style="fill:#fff;"></rect><rect x="515.18" y="289.21" width="5.52" height="11.65" style="fill:#fff;"></rect><rect x="526.79" y="289.21" width="5.52" height="11.65" style="fill:#fff;"></rect><rect x="538.39" y="289.21" width="5.52" height="11.65" style="fill:#fff;"></rect><rect x="555.09" y="94.63" width="5.52" height="11.65" style="fill:#ebebeb;"></rect><rect x="566.69" y="94.63" width="5.52" height="11.65" style="fill:#ebebeb;"></rect><rect x="555.09" y="110.92" width="5.52" height="11.65" style="fill:#ebebeb;"></rect><rect x="566.69" y="110.92" width="5.52" height="11.65" style="fill:#ebebeb;"></rect><rect x="555.09" y="127.21" width="5.52" height="11.65" style="fill:#ebebeb;"></rect><rect x="566.69" y="127.21" width="5.52" height="11.65" style="fill:#ebebeb;"></rect><rect x="555.09" y="143.5" width="5.52" height="11.65" style="fill:#ebebeb;"></rect><rect x="566.69" y="143.5" width="5.52" height="11.65" style="fill:#ebebeb;"></rect><rect x="555.09" y="159.79" width="5.52" height="11.65" style="fill:#ebebeb;"></rect><rect x="566.69" y="159.79" width="5.52" height="11.65" style="fill:#ebebeb;"></rect><rect x="555.09" y="176.08" width="5.52" height="11.65" style="fill:#ebebeb;"></rect><rect x="566.69" y="176.08" width="5.52" height="11.65" style="fill:#ebebeb;"></rect><rect x="555.09" y="192.37" width="5.52" height="11.65" style="fill:#ebebeb;"></rect><rect x="566.69" y="192.37" width="5.52" height="11.65" style="fill:#ebebeb;"></rect><rect x="555.09" y="208.66" width="5.52" height="11.65" style="fill:#ebebeb;"></rect><rect x="566.69" y="208.66" width="5.52" height="11.65" style="fill:#ebebeb;"></rect><rect x="555.09" y="224.95" width="5.52" height="11.65" style="fill:#ebebeb;"></rect><rect x="566.69" y="224.95" width="5.52" height="11.65" style="fill:#ebebeb;"></rect><rect x="555.09" y="241.24" width="5.52" height="11.65" style="fill:#ebebeb;"></rect><rect x="566.69" y="241.24" width="5.52" height="11.65" style="fill:#ebebeb;"></rect><rect x="555.09" y="257.53" width="5.52" height="11.65" style="fill:#ebebeb;"></rect><rect x="566.69" y="257.53" width="5.52" height="11.65" style="fill:#ebebeb;"></rect><rect x="555.09" y="273.82" width="5.52" height="11.65" style="fill:#ebebeb;"></rect><rect x="566.69" y="273.82" width="5.52" height="11.65" style="fill:#ebebeb;"></rect><rect x="555.09" y="289.21" width="5.52" height="11.65" style="fill:#ebebeb;"></rect><rect x="566.69" y="289.21" width="5.52" height="11.65" style="fill:#ebebeb;"></rect></g><g><path d="M627.53,138.73c.25,0,.45,5.22,.45,11.66s-.2,11.66-.45,11.66-.45-5.22-.45-11.66,.2-11.66,.45-11.66Z" style="fill:#e0e0e0;"></path><polygon points="650.72 163.86 585.69 182.32 585.69 307.37 650.72 307.37 650.72 163.86" style="fill:#e0e0e0;"></polygon><polygon points="595.44 179.48 595.44 157.31 635.48 157.31 635.48 168.12 595.44 179.48" style="fill:#e0e0e0;"></polygon><polygon points="590.65 183.56 591.16 298.56 644.06 298.56 644.06 168.39 590.65 183.56" style="fill:#fff;"></polygon><path d="M604.95,301.17c-.25,0-.45-27.59-.45-61.63s.2-61.63,.45-61.63,.45,27.59,.45,61.63-.2,61.63-.45,61.63Z" style="fill:#e0e0e0;"></path><path d="M627.18,301.17c-.25,0-.45-29.13-.45-65.06s.2-65.06,.45-65.06,.45,29.12,.45,65.06-.2,65.06-.45,65.06Z" style="fill:#e0e0e0;"></path><path d="M647.71,201.12c0,.25-13.17,.45-29.42,.45s-29.42-.2-29.42-.45,13.17-.45,29.42-.45,29.42,.2,29.42,.45Z" style="fill:#e0e0e0;"></path><path d="M647.16,236.31c0,.25-13.17,.45-29.42,.45s-29.42-.2-29.42-.45,13.17-.45,29.42-.45,29.42,.2,29.42,.45Z" style="fill:#e0e0e0;"></path><path d="M650.46,271.77c0,.25-13.66,.45-30.51,.45s-30.52-.2-30.52-.45,13.66-.45,30.52-.45,30.51,.2,30.51,.45Z" style="fill:#e0e0e0;"></path><path d="M650.47,163.86c.07,.24-14.32,4.54-32.14,9.6-17.82,5.06-32.32,8.96-32.39,8.72-.07-.24,14.32-4.54,32.14-9.6,17.82-5.06,32.32-8.96,32.39-8.72Z" style="fill:#e0e0e0;"></path><path d="M607.92,227.4c-.18-.18,3.02-3.66,7.14-7.79,4.12-4.12,7.61-7.32,7.79-7.14,.18,.18-3.02,3.66-7.14,7.79-4.12,4.12-7.61,7.32-7.79,7.14Z" style="fill:#e0e0e0;"></path><path d="M617.86,213.25c.17,.18-.98,1.56-2.57,3.07-1.59,1.52-3.03,2.6-3.2,2.42-.17-.18,.98-1.56,2.57-3.08,1.59-1.52,3.03-2.6,3.2-2.42Z" style="fill:#e0e0e0;"></path><path d="M621.53,253.06c.18,.18-2.55,3.25-6.1,6.86-3.55,3.61-6.57,6.4-6.75,6.22-.18-.18,2.55-3.25,6.1-6.86,3.55-3.61,6.57-6.4,6.75-6.22Z" style="fill:#e0e0e0;"></path><path d="M616.54,254.61c.19,.17-.72,1.48-2.02,2.92-1.31,1.44-2.51,2.48-2.7,2.31-.19-.17,.72-1.48,2.03-2.92,1.3-1.44,2.51-2.48,2.7-2.31Z" style="fill:#e0e0e0;"></path><path d="M639,183.59c.19,.16-1.17,2.07-3.03,4.25-1.87,2.18-3.53,3.82-3.72,3.66-.19-.16,1.17-2.06,3.03-4.25,1.86-2.18,3.53-3.82,3.72-3.66Z" style="fill:#e0e0e0;"></path><path d="M637.49,181.28c.19,.17-.78,1.54-2.15,3.05-1.38,1.52-2.64,2.61-2.83,2.44-.19-.17,.78-1.54,2.15-3.05,1.38-1.52,2.64-2.61,2.83-2.44Z" style="fill:#e0e0e0;"></path><path d="M600.07,284.23c.2,.15-.63,1.67-1.85,3.41-1.23,1.74-2.39,3.03-2.6,2.88-.2-.15,.63-1.67,1.86-3.41,1.23-1.74,2.39-3.02,2.6-2.88Z" style="fill:#e0e0e0;"></path><path d="M598.49,282.14c.18,.17-.55,1.25-1.63,2.41-1.09,1.16-2.11,1.96-2.3,1.78-.18-.17,.55-1.25,1.63-2.41,1.08-1.16,2.11-1.96,2.3-1.78Z" style="fill:#e0e0e0;"></path></g></g></g><path d="M418.03,76.79c-.82-2.18-1.65-4.39-3.02-6.27-1.37-1.88-3.38-3.42-5.69-3.7-2.31-.28-4.87,.96-5.62,3.17-.33-4.96-1.03-10.05-3.52-14.36-2.48-4.31-7.12-7.69-12.08-7.39-4.68,.29-8.69,3.76-10.91,7.89-2.23,4.13-2.99,8.86-3.72,13.49-1.77-2.18-5.52-1.49-7.37,.62-1.85,2.11-2.32,5.06-2.71,7.84h54.75l-.09-1.29Z" style="fill:#f5f5f5;"></path><path d="M685.77,98.92c-.82-2.18-1.65-4.39-3.02-6.27-1.37-1.88-3.38-3.42-5.69-3.7-2.31-.28-4.87,.96-5.62,3.17-.33-4.96-1.03-10.05-3.52-14.36-2.48-4.31-7.12-7.69-12.08-7.39-4.68,.29-8.69,3.76-10.91,7.89-2.23,4.13-2.99,8.86-3.72,13.49-1.77-2.18-5.52-1.49-7.37,.62-1.85,2.11-2.32,5.06-2.71,7.84h54.75l-.09-1.29Z" style="fill:#f5f5f5;"></path><path d="M621.28,70.87c-.5-1.32-1-2.67-1.83-3.81-.83-1.14-2.05-2.08-3.45-2.25s-2.96,.59-3.41,1.92c-.2-3.01-.63-6.1-2.14-8.72-1.51-2.62-4.32-4.67-7.34-4.49-2.84,.17-5.28,2.28-6.63,4.79-1.35,2.51-1.82,5.38-2.26,8.19-1.08-1.32-3.35-.91-4.48,.38-1.12,1.28-1.41,3.07-1.65,4.76h33.25l-.06-.78Z" style="fill:#ebebeb;"></path><path d="M333.55,52.35c-.5-1.32-1-2.67-1.83-3.81-.83-1.14-2.05-2.08-3.45-2.25s-2.96,.59-3.41,1.92c-.2-3.01-.63-6.1-2.14-8.72-1.51-2.62-4.32-4.67-7.34-4.49-2.84,.17-5.28,2.28-6.63,4.79-1.35,2.51-1.82,5.38-2.26,8.19-1.08-1.32-3.35-.91-4.48,.38-1.12,1.28-1.41,3.07-1.65,4.76h33.25l-.06-.78Z" style="fill:#ebebeb;"></path><path d="M99.34,98.35c-.61-1.62-1.22-3.26-2.24-4.65-1.02-1.39-2.51-2.54-4.22-2.75-1.71-.21-3.61,.72-4.17,2.35-.25-3.68-.77-7.46-2.61-10.66-1.84-3.2-5.28-5.71-8.97-5.48-3.47,.21-6.45,2.79-8.1,5.85-1.65,3.06-2.22,6.58-2.76,10.01-1.32-1.62-4.1-1.11-5.47,.46-1.37,1.57-1.72,3.76-2.01,5.82h40.63l-.07-.96Z" style="fill:#ebebeb;"></path><polygon points="321.87 426.95 89.13 426.95 107.9 421.86 340.64 421.86 321.87 426.95" style="fill:#ebebeb;"></polygon><polygon points="637.6 426.95 404.86 426.95 423.64 421.86 656.37 421.86 637.6 426.95" style="fill:#ebebeb;"></polygon></g><g id="freepik--Floor--inject-6"><path d="M735,308.12c0,.14-161.19,.26-359.98,.26s-360.02-.12-360.02-.26,161.16-.26,360.02-.26,359.98,.12,359.98,.26Z" style="fill:#263238;"></path></g><g id="freepik--Car--inject-6"><g><path d="M93.92,401.51c2.96-1.23,184.89-8.96,188.63-6.83,3.74,2.14,381.69-14.29,379.09-14.29s-11.54-44.78-11.54-44.78c0,0-36.17-26.63-39.56-29.41s-439.28-2.28-441.87,.5c-2.59,2.77-74.75,34.77-74.75,34.77v60.04Z" style="fill:#FF725E;"></path><g style="opacity:.5;"><path d="M93.92,401.51c2.96-1.23,184.89-8.96,188.63-6.83,3.74,2.14,381.69-14.29,379.09-14.29s-11.54-44.78-11.54-44.78c0,0-36.17-26.63-39.56-29.41s-439.28-2.28-441.87,.5c-2.59,2.77-74.75,34.77-74.75,34.77v60.04Z"></path></g><polygon points="627.57 217.15 673.52 259.33 652.91 264.69 634.96 252.07 610.54 228.8 619.01 215.34 627.57 217.15" style="fill:#455a64;"></polygon><path d="M215.41,269.35s79.71-51.38,108.08-59.72l8.28,3.9-13.35,11.25-97.96,50.73-5.05-6.15Z" style="fill:#455a64;"></path><path d="M685.63,311.55l-7.52-14.62,3.76-5.85v-21.3l-8.35-10.44-15.45-2.09-38.85-35.92,8.35-4.18,2.09-5.01-2.51-4.59c-49.71-9.19-192.56-11.28-229.74-11.7s-73.93,13.78-73.93,13.78l3.34,2.92s-15.46,7.52-37.18,17.96c-21.72,10.44-66,39.68-66,39.68l-16.29-1.67c-83.96,6.27-118.21,23.39-129.07,28.4-10.86,5.01-23.81,35.5-23.81,35.5-3.34,7.24,2.51,45.53,2.51,45.53,0,0,34.67,16.29,35.92,16.29,.27,0,6.88-.12,17.04-.31-.52-3.24-.79-6.56-.79-9.95,0-34.74,28.16-62.9,62.9-62.9s62.9,28.16,62.9,62.9c0,2.6-.18,5.15-.48,7.67l219.33-2.84,66.03-7.2c1.25-33.64,28.9-60.53,62.84-60.53,25.69,0,47.78,15.4,57.55,37.47,1.36,3.07,2.47,6.27,3.32,9.57l36.24-3.95,10.44-12.95-4.59-39.68Z" style="fill:#FF725E;"></path><path d="M53.45,375.7s2.25,15.16,6.02,18.55,38.05,12.31,44.57,12.65c6.51,.34,9.42,0,9.42,0l-4.3-27.77-55.71-3.43Z" style="fill:#263238;"></path><path d="M230.88,375.7c0,.34,4.12,31.35,4.12,31.35l282.95-9.07,5.2-31.54-292.27,9.26Z" style="fill:#263238;"></path><g style="opacity:.3;"><path d="M245.9,365.23c-.01-.17,14-7.39,33.98-9.8s187.78-11.31,198.85-9.87c11.07,1.44,27.44,8.43,27.44,8.43l-260.27,11.24Z"></path></g><path d="M406.01,401.51s-.02-.12-.03-.36c0-.26-.01-.61-.02-1.04,0-.95-.02-2.29-.04-4.01-.01-3.51-.03-8.53-.05-14.73,.01-12.46,.03-29.63,.05-48.6-.01-4.75,.15-9.41,.6-13.86,.4-4.46,.91-8.75,1.44-12.83,1.08-8.16,2.24-15.47,3.24-21.61,1.04-6.11,1.88-11.06,2.47-14.52,.28-1.69,.51-3.01,.66-3.95,.08-.45,.11-.8,.15-1.03,.03-.23,.05-.35,.06-.35s0,.12,0,.35c-.02,.23-.03,.59-.1,1.04-.11,.91-.3,2.25-.57,3.97-.55,3.47-1.34,8.43-2.31,14.55-.96,6.14-2.08,13.46-3.13,21.62-.52,4.08-1.02,8.36-1.41,12.81-.45,4.45-.6,9.07-.59,13.81-.08,18.97-.15,36.14-.2,48.6-.05,6.2-.09,11.22-.12,14.73-.03,1.71-.04,3.06-.06,4.01-.01,.44-.02,.78-.03,1.04,0,.23-.02,.35-.03,.35Z" style="fill:#263238;"></path><g style="opacity:.3;"><path d="M123.13,299.14c-1.16,.35,120.11-2.39,141.48-5.3,21.38-2.92,367.97-17.04,367.97-17.04,0,0-468.99,10.13-509.45,22.34Z"></path></g><g style="opacity:.3;"><path d="M650.1,300.82s6.05,14.07,12.78,15.44c6.73,1.37,22.75-4.72,22.75-4.72l-7.52-14.62-28.01,3.89Z"></path></g><path d="M631.2,278.97c.15,1.5,15.89,21,18.9,21.86s21.79-.29,23.42-1c1.63-.72,4.59-2.89,4.59-2.89l3.76-5.85s.71-14.65,0-14.48c-.71,.17-50.96-.6-50.67,2.36Z" style="fill:#fff;"></path><path d="M77.07,306.2s.12-.07,.36-.19c.27-.12,.62-.29,1.08-.51,.95-.44,2.36-1.06,4.19-1.85,3.66-1.55,8.99-3.74,15.7-6.11,3.36-1.18,7.05-2.43,11.06-3.6,4.01-1.18,8.34-2.32,12.98-3.18,9.27-1.63,19.52-2.94,30.29-4.25,21.55-2.56,41.09-4.52,55.24-5.89,7.06-.65,12.78-1.18,16.76-1.55,1.96-.16,3.49-.29,4.56-.38,.5-.04,.9-.06,1.19-.09,.27-.02,.41-.02,.41-.01,0,0-.14,.03-.4,.06-.29,.03-.68,.08-1.18,.14-1.07,.11-2.6,.27-4.55,.48-3.98,.41-9.7,.99-16.75,1.72-14.14,1.46-33.68,3.47-55.22,6.04-10.76,1.31-21.02,2.6-30.27,4.2-4.61,.84-8.93,1.97-12.94,3.12-4.01,1.15-7.71,2.38-11.06,3.53-6.71,2.32-12.06,4.45-15.74,5.95-1.81,.75-3.23,1.34-4.23,1.75-.46,.19-.83,.35-1.1,.46-.25,.1-.38,.15-.38,.14Z" style="fill:#263238;"></path><path d="M76.23,306.57c-.38,.18-12.25,15.97-10.65,17.7,1.6,1.73,20.23,2.13,26.75-1.46,6.52-3.59,29.95-22.76,30.08-23.56,.13-.8-36.6,2.8-46.19,7.32Z" style="fill:#fff;"></path><g style="opacity:.3;"><path d="M53.45,346.1c.13,.02,24.18-3.59,30,1.51,5.82,5.1,8.51,25.8,7.9,28.1-.61,2.29-34.72-.2-34.7,0,.01,.1-1.02-6.99-1.8-14.25-.82-7.58-1.4-15.36-1.4-15.36Z"></path></g><path d="M63.77,347.23c-.4,.86,2.46,19.27,5.48,21.91,3.02,2.64,21.16,3.21,21.16,3.21,0,0-3.15-20.7-6.95-23.61-3.81-2.91-18.55-3.97-19.68-1.51Z" style="fill:#263238;"></path><g><path d="M345.18,203.21s7.93-5.05,21.67-10.1c13.74-5.05,70.49-5.05,99.76-4.54,29.27,.51,94.92,.44,109.43,4.54,14.51,4.11,24.93,10.94,24.93,10.94l-12.74-1.05s-12.57-7.16-39.43-7.56c-14.25-.21-157.78-1.27-165.41,0-7.63,1.27-14.21,3.13-14.21,3.13l-24,4.65Z" style="fill:#e0e0e0;"></path><path d="M345.18,203.21c.76-.15,8.44-1.67,23.98-4.75h0c2.32-.64,4.82-1.25,7.51-1.85,1.34-.29,2.73-.58,4.16-.85,.72-.13,1.45-.26,2.18-.39,.74-.13,1.51-.13,2.28-.2,1.55-.14,3.12-.12,4.74-.19,1.62-.06,3.28-.08,4.97-.11,3.39-.06,6.94-.11,10.64-.13,14.78-.12,31.91-.13,50.92-.09,19,.09,39.88,.18,62.16,.28,5.57,.04,11.22,.08,16.96,.13,2.87,.03,5.76,.05,8.66,.08,1.45,.02,2.91,.03,4.38,.05,1.46,.04,2.93,.09,4.41,.13,5.89,.27,11.85,.85,17.78,2,2.97,.54,5.92,1.28,8.85,2.13,2.92,.89,5.83,1.89,8.6,3.32l-.11-.03c4.03,.33,8.37,.69,12.74,1.05l-.16,.48c-.43-.27-.91-.57-1.39-.86-3.84-2.27-7.83-4.24-11.89-5.96-4.07-1.7-8.19-3.22-12.4-4.28-4.21-1.01-8.55-1.35-12.8-1.77-4.27-.36-8.52-.62-12.73-.84-16.86-.82-33.14-1.09-48.65-1.33-15.51-.21-30.25-.41-44.05-.59-13.79-.16-26.64-.11-38.37,.1-11.73,.23-22.33,.64-31.62,1.37-4.65,.34-8.95,.85-12.9,1.43-.98,.19-1.93,.37-2.87,.55-.47,.1-.93,.16-1.38,.28-.45,.13-.89,.26-1.32,.38-1.76,.45-3.36,1.14-4.89,1.71-6.11,2.39-10.7,4.6-13.76,6.19-1.53,.8-2.68,1.44-3.45,1.87-.77,.44-1.16,.67-1.16,.67,0,0,.38-.26,1.13-.71,.76-.45,1.9-1.11,3.43-1.92,3.05-1.62,7.63-3.87,13.74-6.29,1.53-.58,3.12-1.28,4.9-1.74l1.33-.39c.45-.12,.92-.19,1.39-.29,.94-.18,1.9-.37,2.88-.56,3.95-.6,8.26-1.12,12.91-1.47,9.29-.76,19.91-1.19,31.64-1.45,11.73-.23,24.59-.3,38.38-.16,13.8,.17,28.54,.35,44.05,.55,15.51,.22,31.8,.48,48.67,1.3,4.22,.22,8.47,.48,12.75,.84,4.28,.42,8.6,.75,12.89,1.78,4.25,1.07,8.39,2.6,12.48,4.3,4.08,1.73,8.09,3.7,11.96,5.99,.49,.29,.97,.58,1.41,.87l.88,.56-1.05-.09c-4.36-.36-8.7-.72-12.74-1.05h-.05l-.06-.03c-2.69-1.39-5.6-2.4-8.49-3.28-2.91-.85-5.85-1.59-8.8-2.12-5.9-1.15-11.84-1.72-17.71-1.99-1.47-.05-2.93-.09-4.39-.14-1.46-.02-2.92-.03-4.37-.05-2.91-.03-5.79-.05-8.66-.08-5.74-.05-11.39-.09-16.96-.14-22.27-.12-43.15-.24-62.15-.34-19-.06-36.13-.09-50.91,0-3.7,.01-7.24,.05-10.64,.1-1.7,.02-3.35,.04-4.97,.09-1.61,.06-3.2,.04-4.73,.17-.76,.07-1.52,.07-2.26,.19l-2.18,.39c-1.43,.27-2.82,.55-4.16,.83-2.68,.58-5.19,1.18-7.5,1.81h0c-15.57,2.94-23.27,4.4-24.03,4.54Z" style="fill:#263238;"></path></g><path d="M639.83,394.25c2.77-.31-.49-35.17-2.03-35.09-1.15,.06,49.97-10.44,52.15-10.33,2.38,.12,3.07,2.53,2.63,1.54,0,0,5.41,17.51,3.61,21.94-1.8,4.43-39,20.97-41.93,21.94-2.93,.97-14.43,0-14.43,0Z" style="fill:#263238;"></path><path d="M551.4,329.67s0-.11,.05-.32c.05-.24,.12-.54,.21-.93,.2-.85,.48-2.04,.84-3.56,.75-3.12,1.81-7.59,3.12-13.09,1.3-5.53,2.86-12.11,4.45-19.45,.77-3.67,1.64-7.53,2.18-11.55,.05-.5,.11-1.02,.09-1.48,.01-.21-.11-.45-.21-.68l-.29-.7c-.44-.94-.88-1.89-1.32-2.84-.92-1.9-1.86-3.82-2.81-5.77-7.68-15.54-14.79-29.54-19.89-39.69-2.54-5.06-4.59-9.16-6.03-12.03-.69-1.4-1.23-2.5-1.62-3.28l-.41-.86c-.09-.19-.13-.3-.12-.3s.07,.09,.17,.28c.12,.21,.27,.49,.46,.84,.41,.77,.98,1.85,1.71,3.24,1.48,2.85,3.58,6.93,6.18,11.95,5.18,10.11,12.34,24.08,20.03,39.63,.95,1.95,1.89,3.88,2.81,5.77,.45,.96,.89,1.91,1.33,2.86l.3,.74c.09,.25,.22,.47,.23,.79,.03,.57-.03,1.07-.09,1.59-.56,4.08-1.43,7.92-2.22,11.6-1.62,7.34-3.21,13.91-4.56,19.43-1.36,5.52-2.49,9.97-3.28,13.05-.4,1.51-.71,2.7-.93,3.54-.11,.38-.19,.68-.26,.92-.06,.21-.1,.31-.11,.31Z" style="fill:#263238;"></path><g><path d="M229.8,278.97c.78-.3,74.29-54.83,108.67-61.65,34.38-6.82,69.06-9.48,103.74-8.6,34.68,.89,139.31,7.41,139.31,7.41l17.78,18.97-43.27,26.38-326.23,17.49Z" style="fill:#455a64;"></path><g style="opacity:.2;"><path d="M338.46,217.31c-17.67,3.5-45.69,19.62-68.84,34.49,20.79-3.71,96.53-16.24,138.19-19.28,48.05-3.5,189.08,0,189.08,0l-15.37-16.4s-104.63-6.52-139.31-7.41c-34.68-.89-69.36,1.78-103.74,8.6Z" style="fill:#fff;"></path></g><polygon points="414.55 209.63 396.76 270.07 429.05 268.28 432.92 209.63 414.55 209.63" style="fill:#263238;"></polygon><path d="M533.72,262.73c.68-.68,3.61-27.73,3.61-27.73,0,0-12.17-21.86-11.5-21.86h9.24s23.22,48.24,22.77,48.24-24.12,1.35-24.12,1.35Z" style="fill:#263238;"></path><path d="M229.79,279.97c-.47,0-.88-.33-.98-.79-.09-.44,.12-.89,.51-1.09,.21-.13,1.24-.87,2.54-1.79,49.4-35.22,86.2-55.95,106.4-59.95,33.43-6.63,68.4-9.53,103.96-8.61,34.3,.88,138.3,7.35,139.35,7.41,.25,.02,.49,.13,.67,.31l17.78,18.97c.21,.22,.3,.52,.26,.82-.04,.3-.21,.56-.47,.72l-43.27,26.38c-.14,.09-.3,.14-.47,.15l-326.23,17.49s-.04,0-.05,0Zm199.68-70.41c-31.03,0-61.52,2.93-90.82,8.74-19.62,3.89-57.06,25.01-105.44,59.49l322.5-17.29,42.01-25.61-16.67-17.78c-7.09-.44-105.69-6.53-138.88-7.38-4.24-.11-8.48-.16-12.7-.16Z" style="fill:#e0e0e0;"></path></g><path d="M249.08,406.6s-.03-.12-.06-.37c-.03-.27-.06-.63-.11-1.09-.09-.99-.21-2.39-.37-4.18-.3-3.66-.73-8.9-1.27-15.37-1.04-12.98-2.44-30.92-3.91-50.73-.89-12.17-1.73-23.64-2.32-33.69-.04-1.26-.17-2.49-.03-3.73,.15-1.22,.4-2.39,.7-3.52,.61-2.26,1.34-4.36,2.09-6.34,1.51-3.95,3.04-7.41,4.42-10.33v.03c.99-3.98,1.78-7.14,2.33-9.33,.27-1.06,.49-1.88,.64-2.47,.07-.26,.13-.47,.17-.63,.04-.14,.07-.21,.07-.21,0,0,0,.08-.03,.22-.04,.17-.08,.38-.14,.64-.13,.59-.32,1.42-.57,2.49-.52,2.2-1.27,5.37-2.21,9.37h0v.03c-1.36,2.93-2.86,6.39-4.34,10.34-.73,1.97-1.45,4.08-2.04,6.31-.29,1.12-.54,2.27-.67,3.46-.13,1.18,0,2.42,.05,3.66,.62,10.04,1.49,21.5,2.38,33.67,1.47,19.8,2.79,37.73,3.76,50.74,.46,6.47,.84,11.72,1.1,15.38,.12,1.79,.21,3.2,.27,4.18,.02,.46,.04,.82,.06,1.09,.01,.25,.01,.37,0,.37Z" style="fill:#263238;"></path><g style="opacity:.3;"><polygon points="246.31 393.68 511.57 385.84 506.88 391.63 254.58 399.7 246.31 393.68"></polygon></g><g><circle cx="173" cy="381.33" r="55.78" transform="translate(-215.09 538.59) rotate(-87.66)" style="fill:#263238;"></circle><path d="M117.23,380.39s0,.1,0,.14c-.44,30.8,24.17,56.13,54.97,56.58,30.8,.44,56.13-24.17,56.58-54.97,0-.05,0-.1,0-.14l-111.53-1.61Z" style="fill:#263238;"></path><path d="M133.84,380.77c-.31,21.63,16.97,39.41,38.59,39.72,21.63,.31,39.41-16.97,39.72-38.59,.31-21.63-16.97-39.41-38.59-39.72-21.63-.31-39.41,16.97-39.72,38.59Z" style="fill:#fafafa;"></path><path d="M173.56,342.18c-21.63-.31-39.41,16.97-39.72,38.59l78.31,1.13c.31-21.63-16.97-39.41-38.59-39.72Z" style="fill:#e0e0e0;"></path><path d="M149.14,380.99c-.19,13.17,10.33,24.01,23.51,24.2,13.17,.19,24.01-10.33,24.2-23.51,.19-13.17-10.34-24.01-23.51-24.2-13.17-.19-24.01,10.33-24.2,23.51Z" style="fill:#263238;"></path></g><g><circle cx="581.66" cy="381.33" r="55.78" transform="translate(176.88 946.93) rotate(-87.66)" style="fill:#263238;"></circle><path d="M525.89,380.39s0,.1,0,.14c-.44,30.8,24.17,56.13,54.97,56.58,30.8,.44,56.13-24.17,56.58-54.97,0-.05,0-.1,0-.14l-111.53-1.61Z" style="fill:#263238;"></path><path d="M542.5,380.77c-.31,21.63,16.97,39.41,38.59,39.72,21.63,.31,39.41-16.97,39.72-38.59,.31-21.63-16.97-39.41-38.59-39.72-21.63-.31-39.41,16.97-39.72,38.59Z" style="fill:#fafafa;"></path><path d="M582.22,342.18c-21.63-.31-39.41,16.97-39.72,38.59l78.31,1.13c.31-21.63-16.97-39.41-38.59-39.72Z" style="fill:#e0e0e0;"></path><path d="M557.81,380.99c-.19,13.17,10.33,24.01,23.51,24.2,13.17,.19,24.01-10.33,24.2-23.51,.19-13.17-10.34-24.01-23.51-24.2-13.17-.19-24.01,10.33-24.2,23.51Z" style="fill:#263238;"></path></g><path d="M237.75,345.86s-.07-.13-.18-.38c-.12-.28-.28-.66-.49-1.14-.48-.98-1.15-2.45-2.24-4.21-2.13-3.54-5.93-8.28-11.67-12.97-5.71-4.69-13.31-9.4-22.52-12.71-9.19-3.31-20.02-5.09-31.29-4.3-11.27,.82-21.78,3.93-30.54,8.26-8.8,4.3-15.89,9.72-21.26,14.79-2.69,2.55-4.93,5.04-6.84,7.28-.92,1.15-1.79,2.2-2.55,3.21-.74,1.02-1.45,1.93-2.03,2.79-.58,.85-1.09,1.62-1.55,2.28-.42,.67-.78,1.24-1.08,1.71-.28,.44-.5,.79-.67,1.05-.15,.23-.23,.35-.24,.35,0,0,.06-.13,.2-.38l.62-1.08c.28-.47,.61-1.06,1.03-1.74l1.51-2.31c.57-.87,1.27-1.79,2-2.82,.75-1.02,1.61-2.09,2.52-3.25,1.9-2.26,4.13-4.78,6.81-7.36,5.37-5.13,12.46-10.61,21.31-14.96,8.8-4.38,19.37-7.53,30.71-8.35,11.35-.8,22.25,1.01,31.49,4.36,9.26,3.36,16.89,8.13,22.6,12.88,5.74,4.75,9.52,9.56,11.61,13.15,2.11,3.6,2.74,5.83,2.74,5.83Z" style="fill:#263238;"></path><path d="M650.14,340.64s-.07-.13-.18-.38c-.12-.28-.28-.66-.49-1.14-.48-.98-1.15-2.45-2.24-4.21-2.13-3.54-5.93-8.28-11.67-12.97-5.71-4.69-13.31-9.4-22.52-12.71-9.19-3.31-20.02-5.09-31.29-4.3-11.27,.82-21.78,3.93-30.54,8.26-8.8,4.3-15.89,9.72-21.26,14.79-2.69,2.55-4.93,5.04-6.84,7.28-.92,1.15-1.79,2.2-2.55,3.21-.74,1.02-1.45,1.93-2.03,2.79l-1.54,2.28c-.42,.67-.78,1.24-1.08,1.71-.28,.44-.5,.79-.67,1.05-.15,.24-.23,.35-.24,.35,0,0,.06-.13,.2-.38,.15-.26,.36-.62,.62-1.08,.28-.47,.61-1.06,1.03-1.74l1.51-2.31c.57-.87,1.27-1.79,2-2.82,.75-1.02,1.61-2.09,2.52-3.25,1.9-2.26,4.13-4.78,6.81-7.36,5.37-5.13,12.46-10.61,21.31-14.96,8.8-4.38,19.37-7.53,30.71-8.35,11.35-.8,22.25,1.01,31.49,4.36,9.26,3.36,16.89,8.13,22.6,12.88,5.74,4.75,9.52,9.56,11.61,13.15,2.11,3.6,2.74,5.83,2.74,5.83Z" style="fill:#263238;"></path><path d="M511.57,352.93c0,.14-58.72,3.15-131.15,6.71-72.46,3.56-131.18,6.34-131.19,6.19,0-.14,58.71-3.15,131.17-6.71,72.43-3.56,131.17-6.34,131.18-6.19Z" style="fill:#263238;"></path><polygon points="209.82 268.78 226.62 268.25 223.65 270.19 209.82 268.78" style="fill:#263238;"></polygon><g><path d="M269.69,274.27c.09,.24-3.4,7.93-3.4,7.93l2.6,2.43h12.68s9.99-10.65,9.65-10.36-20.99,0-20.99,0" style="fill:#FF725E;"></path><g><g style="opacity:.3;"><path d="M269.78,274.27c.09,.24-3.4,7.93-3.4,7.93l2.6,2.43h12.68s9.99-10.65,9.65-10.36c-.34,.29-20.99,0-20.99,0"></path></g><g><path d="M267.01,265.78c-.21,.43,1.78,5.86,3.03,9.17,.58,1.53,2.04,2.54,3.67,2.54h23.61l.96-16.67-7.85-7.99s-20.53,7.17-23.43,12.95Z" style="fill:#FF725E;"></path><path d="M267.01,265.78s.24-.68,1.12-1.63c.88-.95,2.37-2.15,4.41-3.4,4.08-2.52,10.26-5.39,17.81-8.14l.14-.05,.11,.11c2.43,2.46,5.09,5.16,7.87,7.98l.08,.08v.11c-.16,2.64-.32,5.39-.48,8.2-.17,2.9-.34,5.74-.49,8.47v.24h-.26c-5.41-.01-10.5-.02-15.08-.03-2.29,0-4.45-.02-6.47-.03-.5,0-1,0-1.49,0-.48,0-.98,0-1.46-.11-.96-.21-1.77-.77-2.32-1.47-.57-.71-.75-1.54-1.03-2.23-.26-.72-.5-1.39-.73-2.03-.45-1.27-.82-2.36-1.1-3.25-.58-1.78-.76-2.82-.64-2.82-.06,0,.18,1,.81,2.76,.33,.89,.72,1.97,1.17,3.22,.24,.63,.49,1.3,.76,2.01,.29,.71,.49,1.51,1.01,2.13,.51,.63,1.26,1.13,2.13,1.31,.43,.1,.89,.09,1.38,.08,.49,0,.98,0,1.49,0,2.02,0,4.19-.02,6.47-.03,4.59,0,9.67-.02,15.08-.03l-.26,.24c.16-2.73,.32-5.57,.49-8.47,.16-2.81,.32-5.56,.48-8.2l.07,.19c-2.77-2.83-5.42-5.53-7.84-8.01l.25,.06c-7.54,2.7-13.73,5.51-17.82,7.94-2.04,1.21-3.55,2.36-4.45,3.26-.91,.91-1.19,1.55-1.23,1.53Z" style="fill:#263238;"></path></g><path d="M298.03,260.66s-.42,.16-1.2,.35c-.78,.2-1.91,.46-3.31,.76-2.8,.61-6.69,1.38-11,2.12-4.31,.74-8.24,1.3-11.08,1.66-1.42,.18-2.58,.31-3.37,.38-.8,.07-1.24,.1-1.25,.06,0-.04,.43-.13,1.22-.26,.9-.15,2.02-.33,3.35-.55,2.83-.45,6.74-1.07,11.04-1.81,4.31-.74,8.2-1.45,11.02-1.97,1.33-.24,2.45-.44,3.34-.6,.79-.13,1.23-.19,1.24-.16Z" style="fill:#263238;"></path><path d="M272.98,277.31c.13,.07-.65,1.8-1.75,3.88-1.09,2.08-2.08,3.7-2.21,3.64-.13-.07,.65-1.8,1.75-3.88,1.09-2.08,2.08-3.7,2.21-3.64Z" style="fill:#263238;"></path></g></g><path d="M405.54,275.77c0,.14-22.09,1.45-49.36,2.92-27.28,1.47-49.39,2.54-49.39,2.4,0-.14,22.09-1.45,49.37-2.92,27.27-1.47,49.38-2.54,49.39-2.4Z" style="fill:#fff;"></path><path d="M511.93,269.97c0,.14-20.3,1.35-45.36,2.69-25.07,1.34-45.39,2.31-45.4,2.17,0-.14,20.3-1.35,45.37-2.69,25.06-1.34,45.38-2.31,45.39-2.17Z" style="fill:#fff;"></path><path d="M388.67,201.7s-.19,.05-.55,.11c-.42,.05-.95,.12-1.59,.21-1.46,.17-3.44,.41-5.86,.69-4.95,.58-11.77,1.44-19.29,2.51-7.52,1.08-14.31,2.19-19.22,3.02-2.4,.41-4.37,.74-5.82,.99-.64,.1-1.16,.18-1.58,.25-.36,.05-.56,.07-.56,.05s.18-.07,.54-.16l1.57-.35c1.36-.29,3.34-.69,5.79-1.15,4.9-.93,11.68-2.09,19.21-3.18,7.53-1.08,14.37-1.87,19.33-2.37,2.48-.25,4.49-.43,5.88-.53,.65-.04,1.18-.08,1.6-.11,.37-.02,.56-.02,.56,0Z" style="fill:#fff;"></path><path d="M282.88,258.83c.04,.15-2.58,1.04-5.71,2.41-3.13,1.36-5.58,2.66-5.66,2.53-.07-.12,2.28-1.64,5.45-3.01,3.16-1.38,5.88-2.06,5.92-1.93Z" style="fill:#fff;"></path><path d="M195.24,271.36s-.09,.03-.26,.06c-.2,.03-.46,.07-.77,.12-.72,.1-1.71,.25-2.97,.43-2.58,.35-6.31,.89-10.92,1.59-9.21,1.4-21.89,3.56-35.8,6.5-13.9,2.95-26.38,6.12-35.36,8.58-4.49,1.23-8.12,2.25-10.62,2.97-1.22,.34-2.19,.62-2.89,.81-.31,.08-.56,.15-.75,.2-.17,.04-.26,.06-.26,.05,0,0,.08-.04,.25-.1,.2-.07,.44-.15,.74-.25,.69-.22,1.65-.52,2.86-.91,2.48-.79,6.1-1.86,10.58-3.13,8.96-2.55,21.44-5.78,35.35-8.73,13.91-2.94,26.62-5.05,35.85-6.35,4.61-.65,8.35-1.14,10.94-1.43,1.26-.14,2.26-.25,2.98-.33l.78-.07c.18-.01,.27-.02,.27,0Z" style="fill:#fff;"></path><path d="M181.22,312.87s-.23,.03-.66,.05c-.49,0-1.11,.02-1.89,.03-.82,0-1.82,0-2.98,.09-1.16,.07-2.48,.09-3.94,.26-.73,.07-1.49,.14-2.28,.22-.79,.08-1.61,.22-2.46,.33-1.71,.2-3.51,.57-5.41,.92-3.78,.8-7.89,1.9-12.09,3.38-4.19,1.52-8.06,3.29-11.49,5.07-1.69,.93-3.32,1.79-4.76,2.72-.73,.45-1.45,.87-2.11,1.31-.66,.45-1.29,.87-1.9,1.28-1.23,.79-2.27,1.62-3.21,2.3-.95,.68-1.73,1.3-2.36,1.83-.61,.48-1.1,.87-1.48,1.17-.34,.26-.53,.4-.54,.38s.15-.17,.47-.46c.36-.32,.83-.74,1.42-1.25,.61-.55,1.38-1.2,2.31-1.9,.93-.71,1.95-1.56,3.17-2.37l1.89-1.32c.66-.45,1.38-.88,2.11-1.34,1.45-.95,3.07-1.82,4.77-2.77,3.44-1.81,7.32-3.6,11.54-5.13,4.23-1.49,8.37-2.58,12.17-3.36,1.91-.34,3.72-.7,5.44-.88,.86-.1,1.68-.23,2.48-.3,.8-.06,1.56-.12,2.3-.18,1.46-.14,2.79-.14,3.96-.18,1.17-.05,2.17-.03,2.99,0,.78,.03,1.4,.05,1.89,.07,.43,.02,.66,.04,.66,.06Z" style="fill:#fff;"></path><path d="M588.41,307.48s-.23,.04-.66,.07c-.49,.03-1.12,.07-1.89,.11-.82,.03-1.83,.09-2.99,.22-1.16,.12-2.49,.2-3.95,.44-.73,.1-1.49,.21-2.29,.32-.79,.12-1.61,.3-2.46,.45-1.71,.28-3.5,.74-5.39,1.19-3.76,.99-7.83,2.3-11.98,4.01-4.13,1.75-7.93,3.74-11.27,5.71-1.65,1.03-3.23,1.99-4.63,3-.71,.5-1.41,.95-2.05,1.44-.64,.49-1.25,.95-1.83,1.4-1.19,.87-2.18,1.76-3.08,2.5-.91,.74-1.65,1.41-2.26,1.98-.58,.52-1.05,.94-1.41,1.27-.33,.29-.5,.43-.52,.42s.14-.18,.44-.49c.35-.35,.79-.79,1.35-1.34,.58-.59,1.31-1.29,2.2-2.05,.89-.77,1.87-1.68,3.05-2.57,.58-.46,1.19-.94,1.82-1.43,.64-.5,1.34-.96,2.04-1.47,1.4-1.04,2.98-2.01,4.63-3.06,3.35-2.01,7.16-4.02,11.32-5.78,4.17-1.72,8.28-3.03,12.06-4,1.91-.44,3.71-.88,5.43-1.15,.86-.14,1.68-.32,2.48-.42,.8-.1,1.57-.2,2.3-.29,1.46-.21,2.8-.27,3.97-.36,1.17-.1,2.18-.13,3.01-.13,.78,0,1.41-.01,1.9-.01,.43,0,.66,.01,.66,.03Z" style="fill:#fff;"></path><g><g><g style="opacity:.3;"><path d="M399.58,296.28c0,3.5-5.19,6.34-11.59,6.34s-11.59-2.84-11.59-6.34,5.19-6.34,11.59-6.34,11.59,2.84,11.59,6.34Z"></path></g><g><path d="M401.5,299.39h-27.02c-1.72,0-3.11-1.39-3.11-3.11h0c0-1.72,1.39-3.11,3.11-3.11h27.02c1.72,0,3.11,1.39,3.11,3.11h0c0,1.72-1.39,3.11-3.11,3.11Z" style="fill:#FF725E;"></path><path d="M401.5,299.39s.26-.02,.73-.14c.45-.13,1.15-.43,1.68-1.17,.54-.7,.82-1.94,.25-3.08-.28-.56-.77-1.08-1.42-1.37-.64-.33-1.42-.27-2.26-.26-6.71,.02-15.87,.05-26,.08-1.18-.02-2.28,.77-2.66,1.84-.41,1.06-.11,2.33,.71,3.08,.4,.38,.91,.63,1.43,.73,.51,.09,1.13,.04,1.7,.05,1.15,0,2.28,0,3.38,0,4.39,.02,8.35,.04,11.69,.06,3.29,.03,5.96,.06,7.88,.08,.89,.02,1.6,.04,2.14,.05,.49,.02,.75,.03,.75,.05s-.26,.04-.75,.05c-.54,.01-1.25,.03-2.14,.05-1.92,.02-4.6,.05-7.88,.08-3.35,.02-7.3,.03-11.69,.06-1.1,0-2.23,0-3.38,0-.58-.02-1.14,.05-1.79-.05-.62-.11-1.22-.41-1.69-.86-.96-.88-1.33-2.37-.84-3.63,.46-1.27,1.76-2.2,3.15-2.18,10.13,.03,19.3,.06,26,.08,.42,0,.81,0,1.23,.02,.42,.03,.82,.14,1.17,.31,.72,.34,1.25,.92,1.54,1.54,.6,1.28,.24,2.6-.35,3.33-.6,.77-1.34,1.05-1.82,1.15-.49,.1-.75,.04-.75,.04Z" style="fill:#263238;"></path></g></g><path d="M398.78,293.84c0,.14-5.26,.26-11.75,.26s-11.75-.12-11.75-.26,5.26-.26,11.75-.26,11.75,.12,11.75,.26Z" style="fill:#fff;"></path></g><g><g><g style="opacity:.3;"><path d="M543.2,296.28c0,3.5-5.19,6.34-11.59,6.34s-11.59-2.84-11.59-6.34,5.19-6.34,11.59-6.34,11.59,2.84,11.59,6.34Z"></path></g><g><path d="M545.12,299.39h-27.02c-1.72,0-3.11-1.39-3.11-3.11h0c0-1.72,1.39-3.11,3.11-3.11h27.02c1.72,0,3.11,1.39,3.11,3.11h0c0,1.72-1.39,3.11-3.11,3.11Z" style="fill:#FF725E;"></path><path d="M545.12,299.39s.26-.02,.73-.14c.45-.13,1.15-.43,1.68-1.17,.54-.7,.82-1.94,.25-3.08-.28-.56-.77-1.08-1.42-1.37-.64-.33-1.42-.27-2.26-.26-6.71,.02-15.87,.05-26,.08-1.18-.02-2.28,.77-2.66,1.84-.41,1.06-.11,2.33,.71,3.08,.4,.38,.91,.63,1.43,.73,.51,.09,1.13,.04,1.7,.05,1.15,0,2.28,0,3.38,0,4.39,.02,8.35,.04,11.69,.06,3.29,.03,5.96,.06,7.88,.08,.89,.02,1.6,.04,2.14,.05,.49,.02,.75,.03,.75,.05s-.26,.04-.75,.05c-.54,.01-1.25,.03-2.14,.05-1.92,.02-4.6,.05-7.88,.08-3.35,.02-7.3,.03-11.69,.06-1.1,0-2.23,0-3.38,0-.58-.02-1.14,.05-1.79-.05-.62-.11-1.22-.41-1.69-.86-.96-.88-1.33-2.37-.84-3.63,.46-1.27,1.76-2.2,3.15-2.18,10.13,.03,19.3,.06,26,.08,.42,0,.81,0,1.23,.02,.42,.03,.82,.14,1.17,.31,.72,.34,1.25,.92,1.54,1.54,.6,1.28,.24,2.6-.35,3.33-.6,.77-1.34,1.05-1.82,1.15-.49,.1-.75,.04-.75,.04Z" style="fill:#263238;"></path></g></g><path d="M546.37,294.12c0,.14-6.68,.26-14.91,.26s-14.91-.12-14.91-.26,6.68-.26,14.91-.26,14.91,.12,14.91,.26Z" style="fill:#fff;"></path></g></g></g></svg>